<mxfile host="app.diagrams.net" agent="Mozilla/5.0 (Windows NT 10.0; Win64; x64) AppleWebKit/537.36 (KHTML, like Gecko) Chrome/131.0.0.0 Safari/537.36" version="24.8.9">
  <diagram name="Pagina-1" id="KmJrsmhn1udqtUvdeelT">
    <mxGraphModel dx="2302" dy="1633" grid="1" gridSize="10" guides="1" tooltips="1" connect="0" arrows="0" fold="1" page="0" pageScale="1" pageWidth="827" pageHeight="1169" math="0" shadow="0">
      <root>
        <mxCell id="0" />
        <mxCell id="1" parent="0" />
        <mxCell id="QCxhBgs05hmmPSQC0AWl-297" value="" style="rounded=1;whiteSpace=wrap;html=1;arcSize=8;movable=1;resizable=1;rotatable=1;deletable=1;editable=1;locked=0;connectable=1;" parent="1" vertex="1">
          <mxGeometry x="120" y="-96" width="280" height="456" as="geometry" />
        </mxCell>
        <mxCell id="QCxhBgs05hmmPSQC0AWl-298" value="" style="endArrow=open;html=1;rounded=0;fontSize=12;startSize=8;endSize=8;curved=0;startArrow=none;startFill=0;entryX=0.448;entryY=0.496;entryDx=0;entryDy=0;entryPerimeter=0;endFill=0;movable=1;resizable=1;rotatable=1;deletable=1;editable=1;locked=0;connectable=1;" parent="1" edge="1">
          <mxGeometry width="50" height="50" relative="1" as="geometry">
            <mxPoint x="142" y="-77" as="sourcePoint" />
            <mxPoint x="127.99799999999993" y="-76.80799999999999" as="targetPoint" />
          </mxGeometry>
        </mxCell>
        <mxCell id="QCxhBgs05hmmPSQC0AWl-299" value="&lt;font style=&quot;font-size: 10px;&quot;&gt;SELEZIONA&lt;/font&gt;" style="text;html=1;align=center;verticalAlign=middle;whiteSpace=wrap;rounded=0;fontSize=10;movable=1;resizable=1;rotatable=1;deletable=1;editable=1;locked=0;connectable=1;" parent="1" vertex="1">
          <mxGeometry x="156" y="-94" width="58" height="30" as="geometry" />
        </mxCell>
        <mxCell id="QCxhBgs05hmmPSQC0AWl-300" value="&lt;font style=&quot;font-size: 10px;&quot;&gt;CONFERMA E PAGA&lt;/font&gt;" style="text;html=1;align=center;verticalAlign=middle;whiteSpace=wrap;rounded=0;fontSize=10;movable=1;resizable=1;rotatable=1;deletable=1;editable=1;locked=0;connectable=1;" parent="1" vertex="1">
          <mxGeometry x="223" y="-94" width="98" height="30" as="geometry" />
        </mxCell>
        <mxCell id="QCxhBgs05hmmPSQC0AWl-301" value="&lt;font style=&quot;font-size: 10px;&quot;&gt;RITIRA&lt;/font&gt;" style="text;html=1;align=center;verticalAlign=middle;whiteSpace=wrap;rounded=0;fontSize=10;movable=1;resizable=1;rotatable=1;deletable=1;editable=1;locked=0;connectable=1;" parent="1" vertex="1">
          <mxGeometry x="333" y="-94" width="33" height="30" as="geometry" />
        </mxCell>
        <mxCell id="QCxhBgs05hmmPSQC0AWl-302" value="" style="ellipse;whiteSpace=wrap;html=1;aspect=fixed;fillStyle=auto;fillColor=#000000;movable=1;resizable=1;rotatable=1;deletable=1;editable=1;locked=0;connectable=1;" parent="1" vertex="1">
          <mxGeometry x="183" y="-71" width="4" height="4" as="geometry" />
        </mxCell>
        <mxCell id="QCxhBgs05hmmPSQC0AWl-303" value="" style="ellipse;whiteSpace=wrap;html=1;aspect=fixed;fillStyle=auto;fillColor=#000000;movable=1;resizable=1;rotatable=1;deletable=1;editable=1;locked=0;connectable=1;" parent="1" vertex="1">
          <mxGeometry x="268" y="-71" width="4" height="4" as="geometry" />
        </mxCell>
        <mxCell id="QCxhBgs05hmmPSQC0AWl-304" value="" style="ellipse;whiteSpace=wrap;html=1;aspect=fixed;fillStyle=auto;fillColor=none;movable=1;resizable=1;rotatable=1;deletable=1;editable=1;locked=0;connectable=1;" parent="1" vertex="1">
          <mxGeometry x="349" y="-71" width="4" height="4" as="geometry" />
        </mxCell>
        <mxCell id="QCxhBgs05hmmPSQC0AWl-305" value="" style="endArrow=none;html=1;rounded=0;movable=1;resizable=1;rotatable=1;deletable=1;editable=1;locked=0;connectable=1;" parent="1" edge="1">
          <mxGeometry width="50" height="50" relative="1" as="geometry">
            <mxPoint x="191" y="-69" as="sourcePoint" />
            <mxPoint x="265" y="-69" as="targetPoint" />
          </mxGeometry>
        </mxCell>
        <mxCell id="QCxhBgs05hmmPSQC0AWl-306" value="" style="endArrow=none;dashed=1;html=1;rounded=0;movable=1;resizable=1;rotatable=1;deletable=1;editable=1;locked=0;connectable=1;" parent="1" edge="1">
          <mxGeometry width="50" height="50" relative="1" as="geometry">
            <mxPoint x="274" y="-69" as="sourcePoint" />
            <mxPoint x="347" y="-69" as="targetPoint" />
          </mxGeometry>
        </mxCell>
        <mxCell id="QCxhBgs05hmmPSQC0AWl-307" value="" style="endArrow=none;html=1;rounded=0;movable=1;resizable=1;rotatable=1;deletable=1;editable=1;locked=0;connectable=1;" parent="1" edge="1">
          <mxGeometry width="50" height="50" relative="1" as="geometry">
            <mxPoint x="120" y="-59" as="sourcePoint" />
            <mxPoint x="400" y="-59" as="targetPoint" />
          </mxGeometry>
        </mxCell>
        <mxCell id="QCxhBgs05hmmPSQC0AWl-308" value="&lt;font style=&quot;font-size: 16px;&quot;&gt;CONFERMA E PAGA&lt;/font&gt;" style="text;html=1;align=center;verticalAlign=middle;whiteSpace=wrap;rounded=0;fontSize=16;movable=1;resizable=1;rotatable=1;deletable=1;editable=1;locked=0;connectable=1;" parent="1" vertex="1">
          <mxGeometry x="128" y="-42" width="156" height="30" as="geometry" />
        </mxCell>
        <mxCell id="QCxhBgs05hmmPSQC0AWl-309" value="&lt;div style=&quot;&quot;&gt;&lt;span style=&quot;background-color: initial;&quot;&gt;Ristorante&lt;/span&gt;&lt;/div&gt;&lt;div style=&quot;&quot;&gt;&lt;span style=&quot;font-size: 10px; background-color: initial;&quot;&gt;Via Mario Rossi 123, Bari&lt;/span&gt;&lt;/div&gt;" style="text;html=1;align=left;verticalAlign=middle;whiteSpace=wrap;rounded=0;movable=1;resizable=1;rotatable=1;deletable=1;editable=1;locked=0;connectable=1;" parent="1" vertex="1">
          <mxGeometry x="127" y="-3" width="121" height="30" as="geometry" />
        </mxCell>
        <mxCell id="QCxhBgs05hmmPSQC0AWl-310" value="&lt;u&gt;cambia&lt;/u&gt;" style="text;html=1;align=center;verticalAlign=middle;whiteSpace=wrap;rounded=0;movable=1;resizable=1;rotatable=1;deletable=1;editable=1;locked=0;connectable=1;" parent="1" vertex="1">
          <mxGeometry x="340" y="-2" width="60" height="30" as="geometry" />
        </mxCell>
        <mxCell id="QCxhBgs05hmmPSQC0AWl-311" value="Modalità di ritiro&lt;div&gt;&lt;span style=&quot;font-size: 10px; background-color: initial;&quot;&gt;McDrive&lt;/span&gt;&lt;/div&gt;" style="text;html=1;align=left;verticalAlign=middle;whiteSpace=wrap;rounded=0;movable=1;resizable=1;rotatable=1;deletable=1;editable=1;locked=0;connectable=1;" parent="1" vertex="1">
          <mxGeometry x="127" y="49" width="107" height="30" as="geometry" />
        </mxCell>
        <mxCell id="QCxhBgs05hmmPSQC0AWl-312" value="&lt;u&gt;cambia&lt;/u&gt;" style="text;html=1;align=center;verticalAlign=middle;whiteSpace=wrap;rounded=0;movable=1;resizable=1;rotatable=1;deletable=1;editable=1;locked=0;connectable=1;" parent="1" vertex="1">
          <mxGeometry x="351" y="48" width="39" height="30" as="geometry" />
        </mxCell>
        <mxCell id="QCxhBgs05hmmPSQC0AWl-313" value="Applica codice sconto&lt;div&gt;&lt;span style=&quot;font-size: 10px; background-color: initial;&quot;&gt;Codici disponibili nel profilo&lt;/span&gt;&lt;/div&gt;" style="text;html=1;align=left;verticalAlign=middle;whiteSpace=wrap;rounded=0;movable=1;resizable=1;rotatable=1;deletable=1;editable=1;locked=0;connectable=1;" parent="1" vertex="1">
          <mxGeometry x="128" y="100" width="181" height="30" as="geometry" />
        </mxCell>
        <mxCell id="QCxhBgs05hmmPSQC0AWl-314" value="" style="ellipse;whiteSpace=wrap;html=1;aspect=fixed;movable=1;resizable=1;rotatable=1;deletable=1;editable=1;locked=0;connectable=1;" parent="1" vertex="1">
          <mxGeometry x="239" y="199" width="7" height="7" as="geometry" />
        </mxCell>
        <mxCell id="QCxhBgs05hmmPSQC0AWl-316" value="" style="ellipse;whiteSpace=wrap;html=1;aspect=fixed;movable=1;resizable=1;rotatable=1;deletable=1;editable=1;locked=0;connectable=1;fillColor=none;" parent="1" vertex="1">
          <mxGeometry x="274" y="199" width="7" height="7" as="geometry" />
        </mxCell>
        <mxCell id="QCxhBgs05hmmPSQC0AWl-317" value="" style="triangle;whiteSpace=wrap;html=1;movable=1;resizable=1;rotatable=1;deletable=1;editable=1;locked=0;connectable=1;" parent="1" vertex="1">
          <mxGeometry x="292" y="197" width="8" height="12" as="geometry" />
        </mxCell>
        <mxCell id="QCxhBgs05hmmPSQC0AWl-318" value="" style="triangle;whiteSpace=wrap;html=1;direction=west;movable=1;resizable=1;rotatable=1;deletable=1;editable=1;locked=0;connectable=1;" parent="1" vertex="1">
          <mxGeometry x="220" y="197" width="8" height="12" as="geometry" />
        </mxCell>
        <mxCell id="QCxhBgs05hmmPSQC0AWl-320" value="&lt;font style=&quot;font-size: 14px;&quot;&gt;Totale&lt;/font&gt;" style="text;html=1;align=left;verticalAlign=middle;whiteSpace=wrap;rounded=0;movable=1;resizable=1;rotatable=1;deletable=1;editable=1;locked=0;connectable=1;fontSize=14;" parent="1" vertex="1">
          <mxGeometry x="128" y="237" width="132" height="30" as="geometry" />
        </mxCell>
        <mxCell id="QCxhBgs05hmmPSQC0AWl-321" value="&lt;font style=&quot;font-size: 14px;&quot;&gt;10,00 €&lt;/font&gt;" style="text;html=1;align=center;verticalAlign=middle;whiteSpace=wrap;rounded=0;movable=1;resizable=1;rotatable=1;deletable=1;editable=1;locked=0;connectable=1;fontSize=14;" parent="1" vertex="1">
          <mxGeometry x="342" y="238" width="49" height="30" as="geometry" />
        </mxCell>
        <mxCell id="QCxhBgs05hmmPSQC0AWl-322" value="CONFERMA ORDINE" style="rounded=1;whiteSpace=wrap;html=1;arcSize=12;movable=1;resizable=1;rotatable=1;deletable=1;editable=1;locked=0;connectable=1;" parent="1" vertex="1">
          <mxGeometry x="180" y="322" width="160" height="38" as="geometry" />
        </mxCell>
        <mxCell id="QCxhBgs05hmmPSQC0AWl-367" value="" style="endArrow=classic;html=1;rounded=0;edgeStyle=orthogonalEdgeStyle;curved=1;exitX=0.835;exitY=0.995;exitDx=0;exitDy=0;exitPerimeter=0;entryX=-0.005;entryY=0.188;entryDx=0;entryDy=0;entryPerimeter=0;" parent="1" source="QCxhBgs05hmmPSQC0AWl-322" target="QCxhBgs05hmmPSQC0AWl-497" edge="1">
          <mxGeometry width="50" height="50" relative="1" as="geometry">
            <mxPoint x="397" y="339" as="sourcePoint" />
            <mxPoint x="510" y="-10" as="targetPoint" />
            <Array as="points">
              <mxPoint x="314" y="380" />
              <mxPoint x="440" y="380" />
              <mxPoint x="440" y="-10" />
            </Array>
          </mxGeometry>
        </mxCell>
        <mxCell id="QCxhBgs05hmmPSQC0AWl-369" value="L&#39;utente clicca&amp;nbsp;&lt;div&gt;conferma ordine&amp;nbsp;&lt;/div&gt;&lt;div&gt;senza selezionare&amp;nbsp;&lt;/div&gt;&lt;div&gt;alcuno sconto&lt;/div&gt;" style="edgeLabel;html=1;align=center;verticalAlign=middle;resizable=0;points=[];" parent="QCxhBgs05hmmPSQC0AWl-367" vertex="1" connectable="0">
          <mxGeometry x="-0.089" y="4" relative="1" as="geometry">
            <mxPoint x="26" y="41" as="offset" />
          </mxGeometry>
        </mxCell>
        <mxCell id="QCxhBgs05hmmPSQC0AWl-315" value="" style="ellipse;whiteSpace=wrap;html=1;aspect=fixed;movable=1;resizable=1;rotatable=1;deletable=1;editable=1;locked=0;connectable=1;" parent="1" vertex="1">
          <mxGeometry x="256.8" y="199" width="7" height="7" as="geometry" />
        </mxCell>
        <mxCell id="QCxhBgs05hmmPSQC0AWl-431" value="" style="group" parent="1" vertex="1" connectable="0">
          <mxGeometry x="220.3" y="139" width="80" height="50" as="geometry" />
        </mxCell>
        <mxCell id="QCxhBgs05hmmPSQC0AWl-432" value="" style="rounded=1;whiteSpace=wrap;html=1;movable=1;resizable=1;rotatable=1;deletable=1;editable=1;locked=0;connectable=1;" parent="QCxhBgs05hmmPSQC0AWl-431" vertex="1">
          <mxGeometry width="80" height="50" as="geometry" />
        </mxCell>
        <mxCell id="QCxhBgs05hmmPSQC0AWl-433" value="" style="whiteSpace=wrap;html=1;aspect=fixed;movable=1;resizable=1;rotatable=1;deletable=1;editable=1;locked=0;connectable=1;" parent="QCxhBgs05hmmPSQC0AWl-431" vertex="1">
          <mxGeometry x="7.999999999999953" y="9.166666666666679" width="21.386562203228877" height="21.386562203228877" as="geometry" />
        </mxCell>
        <mxCell id="QCxhBgs05hmmPSQC0AWl-434" value="-------" style="text;html=1;align=center;verticalAlign=middle;whiteSpace=wrap;rounded=0;movable=1;resizable=1;rotatable=1;deletable=1;editable=1;locked=0;connectable=1;" parent="QCxhBgs05hmmPSQC0AWl-431" vertex="1">
          <mxGeometry x="34.66666666666662" y="3.333333333333322" width="40" height="25" as="geometry" />
        </mxCell>
        <mxCell id="QCxhBgs05hmmPSQC0AWl-435" value="-------" style="text;html=1;align=center;verticalAlign=middle;whiteSpace=wrap;rounded=0;movable=1;resizable=1;rotatable=1;deletable=1;editable=1;locked=0;connectable=1;" parent="QCxhBgs05hmmPSQC0AWl-431" vertex="1">
          <mxGeometry x="34.66666666666662" y="16.666666666666668" width="40" height="25" as="geometry" />
        </mxCell>
        <mxCell id="QCxhBgs05hmmPSQC0AWl-436" value="" style="group" parent="1" vertex="1" connectable="0">
          <mxGeometry x="310.3" y="139" width="80" height="50" as="geometry" />
        </mxCell>
        <mxCell id="QCxhBgs05hmmPSQC0AWl-437" value="" style="rounded=1;whiteSpace=wrap;html=1;movable=1;resizable=1;rotatable=1;deletable=1;editable=1;locked=0;connectable=1;" parent="QCxhBgs05hmmPSQC0AWl-436" vertex="1">
          <mxGeometry width="80" height="50" as="geometry" />
        </mxCell>
        <mxCell id="QCxhBgs05hmmPSQC0AWl-438" value="" style="whiteSpace=wrap;html=1;aspect=fixed;movable=1;resizable=1;rotatable=1;deletable=1;editable=1;locked=0;connectable=1;" parent="QCxhBgs05hmmPSQC0AWl-436" vertex="1">
          <mxGeometry x="7.999999999999953" y="9.166666666666679" width="21.386562203228877" height="21.386562203228877" as="geometry" />
        </mxCell>
        <mxCell id="QCxhBgs05hmmPSQC0AWl-439" value="-------" style="text;html=1;align=center;verticalAlign=middle;whiteSpace=wrap;rounded=0;movable=1;resizable=1;rotatable=1;deletable=1;editable=1;locked=0;connectable=1;" parent="QCxhBgs05hmmPSQC0AWl-436" vertex="1">
          <mxGeometry x="34.66666666666662" y="3.333333333333322" width="40" height="25" as="geometry" />
        </mxCell>
        <mxCell id="QCxhBgs05hmmPSQC0AWl-440" value="-------" style="text;html=1;align=center;verticalAlign=middle;whiteSpace=wrap;rounded=0;movable=1;resizable=1;rotatable=1;deletable=1;editable=1;locked=0;connectable=1;" parent="QCxhBgs05hmmPSQC0AWl-436" vertex="1">
          <mxGeometry x="34.66666666666662" y="16.666666666666668" width="40" height="25" as="geometry" />
        </mxCell>
        <mxCell id="QCxhBgs05hmmPSQC0AWl-441" value="" style="group" parent="1" vertex="1" connectable="0">
          <mxGeometry x="130.3" y="139" width="80" height="50" as="geometry" />
        </mxCell>
        <mxCell id="QCxhBgs05hmmPSQC0AWl-442" value="" style="rounded=1;whiteSpace=wrap;html=1;movable=1;resizable=1;rotatable=1;deletable=1;editable=1;locked=0;connectable=1;" parent="QCxhBgs05hmmPSQC0AWl-441" vertex="1">
          <mxGeometry width="80" height="50" as="geometry" />
        </mxCell>
        <mxCell id="QCxhBgs05hmmPSQC0AWl-443" value="" style="whiteSpace=wrap;html=1;aspect=fixed;movable=1;resizable=1;rotatable=1;deletable=1;editable=1;locked=0;connectable=1;" parent="QCxhBgs05hmmPSQC0AWl-441" vertex="1">
          <mxGeometry x="7.999999999999953" y="9.166666666666679" width="21.386562203228877" height="21.386562203228877" as="geometry" />
        </mxCell>
        <mxCell id="QCxhBgs05hmmPSQC0AWl-444" value="-------" style="text;html=1;align=center;verticalAlign=middle;whiteSpace=wrap;rounded=0;movable=1;resizable=1;rotatable=1;deletable=1;editable=1;locked=0;connectable=1;" parent="QCxhBgs05hmmPSQC0AWl-441" vertex="1">
          <mxGeometry x="34.66666666666662" y="3.333333333333322" width="40" height="25" as="geometry" />
        </mxCell>
        <mxCell id="QCxhBgs05hmmPSQC0AWl-445" value="-------" style="text;html=1;align=center;verticalAlign=middle;whiteSpace=wrap;rounded=0;movable=1;resizable=1;rotatable=1;deletable=1;editable=1;locked=0;connectable=1;" parent="QCxhBgs05hmmPSQC0AWl-441" vertex="1">
          <mxGeometry x="34.66666666666662" y="16.666666666666668" width="40" height="25" as="geometry" />
        </mxCell>
        <mxCell id="QCxhBgs05hmmPSQC0AWl-446" value="" style="rounded=1;whiteSpace=wrap;html=1;arcSize=8;movable=1;resizable=1;rotatable=1;deletable=1;editable=1;locked=0;connectable=1;" parent="1" vertex="1">
          <mxGeometry x="920" y="-96" width="280" height="456" as="geometry" />
        </mxCell>
        <mxCell id="QCxhBgs05hmmPSQC0AWl-447" value="" style="endArrow=open;html=1;rounded=0;fontSize=12;startSize=8;endSize=8;curved=0;startArrow=none;startFill=0;entryX=0.448;entryY=0.496;entryDx=0;entryDy=0;entryPerimeter=0;endFill=0;movable=1;resizable=1;rotatable=1;deletable=1;editable=1;locked=0;connectable=1;" parent="1" edge="1">
          <mxGeometry width="50" height="50" relative="1" as="geometry">
            <mxPoint x="942" y="-77" as="sourcePoint" />
            <mxPoint x="927.9979999999999" y="-76.80799999999999" as="targetPoint" />
          </mxGeometry>
        </mxCell>
        <mxCell id="QCxhBgs05hmmPSQC0AWl-448" value="&lt;font style=&quot;font-size: 10px;&quot;&gt;SELEZIONA&lt;/font&gt;" style="text;html=1;align=center;verticalAlign=middle;whiteSpace=wrap;rounded=0;fontSize=10;movable=1;resizable=1;rotatable=1;deletable=1;editable=1;locked=0;connectable=1;" parent="1" vertex="1">
          <mxGeometry x="956" y="-94" width="58" height="30" as="geometry" />
        </mxCell>
        <mxCell id="QCxhBgs05hmmPSQC0AWl-449" value="&lt;font style=&quot;font-size: 10px;&quot;&gt;CONFERMA E PAGA&lt;/font&gt;" style="text;html=1;align=center;verticalAlign=middle;whiteSpace=wrap;rounded=0;fontSize=10;movable=1;resizable=1;rotatable=1;deletable=1;editable=1;locked=0;connectable=1;" parent="1" vertex="1">
          <mxGeometry x="1023" y="-94" width="98" height="30" as="geometry" />
        </mxCell>
        <mxCell id="QCxhBgs05hmmPSQC0AWl-450" value="&lt;font style=&quot;font-size: 10px;&quot;&gt;RITIRA&lt;/font&gt;" style="text;html=1;align=center;verticalAlign=middle;whiteSpace=wrap;rounded=0;fontSize=10;movable=1;resizable=1;rotatable=1;deletable=1;editable=1;locked=0;connectable=1;" parent="1" vertex="1">
          <mxGeometry x="1133" y="-94" width="33" height="30" as="geometry" />
        </mxCell>
        <mxCell id="QCxhBgs05hmmPSQC0AWl-451" value="" style="ellipse;whiteSpace=wrap;html=1;aspect=fixed;fillStyle=auto;fillColor=#000000;movable=1;resizable=1;rotatable=1;deletable=1;editable=1;locked=0;connectable=1;" parent="1" vertex="1">
          <mxGeometry x="983" y="-71" width="4" height="4" as="geometry" />
        </mxCell>
        <mxCell id="QCxhBgs05hmmPSQC0AWl-452" value="" style="ellipse;whiteSpace=wrap;html=1;aspect=fixed;fillStyle=auto;fillColor=#000000;movable=1;resizable=1;rotatable=1;deletable=1;editable=1;locked=0;connectable=1;" parent="1" vertex="1">
          <mxGeometry x="1068" y="-71" width="4" height="4" as="geometry" />
        </mxCell>
        <mxCell id="QCxhBgs05hmmPSQC0AWl-453" value="" style="ellipse;whiteSpace=wrap;html=1;aspect=fixed;fillStyle=auto;fillColor=none;movable=1;resizable=1;rotatable=1;deletable=1;editable=1;locked=0;connectable=1;" parent="1" vertex="1">
          <mxGeometry x="1149" y="-71" width="4" height="4" as="geometry" />
        </mxCell>
        <mxCell id="QCxhBgs05hmmPSQC0AWl-454" value="" style="endArrow=none;html=1;rounded=0;movable=1;resizable=1;rotatable=1;deletable=1;editable=1;locked=0;connectable=1;" parent="1" edge="1">
          <mxGeometry width="50" height="50" relative="1" as="geometry">
            <mxPoint x="991" y="-69" as="sourcePoint" />
            <mxPoint x="1065" y="-69" as="targetPoint" />
          </mxGeometry>
        </mxCell>
        <mxCell id="QCxhBgs05hmmPSQC0AWl-455" value="" style="endArrow=none;dashed=1;html=1;rounded=0;movable=1;resizable=1;rotatable=1;deletable=1;editable=1;locked=0;connectable=1;" parent="1" edge="1">
          <mxGeometry width="50" height="50" relative="1" as="geometry">
            <mxPoint x="1074" y="-69" as="sourcePoint" />
            <mxPoint x="1147" y="-69" as="targetPoint" />
          </mxGeometry>
        </mxCell>
        <mxCell id="QCxhBgs05hmmPSQC0AWl-456" value="" style="endArrow=none;html=1;rounded=0;movable=1;resizable=1;rotatable=1;deletable=1;editable=1;locked=0;connectable=1;entryX=1.001;entryY=0.078;entryDx=0;entryDy=0;entryPerimeter=0;" parent="1" target="QCxhBgs05hmmPSQC0AWl-446" edge="1">
          <mxGeometry width="50" height="50" relative="1" as="geometry">
            <mxPoint x="920" y="-60" as="sourcePoint" />
            <mxPoint x="1200" y="-59" as="targetPoint" />
          </mxGeometry>
        </mxCell>
        <mxCell id="QCxhBgs05hmmPSQC0AWl-457" value="&lt;font style=&quot;font-size: 16px;&quot;&gt;CONFERMA E PAGA&lt;/font&gt;" style="text;html=1;align=center;verticalAlign=middle;whiteSpace=wrap;rounded=0;fontSize=16;movable=1;resizable=1;rotatable=1;deletable=1;editable=1;locked=0;connectable=1;" parent="1" vertex="1">
          <mxGeometry x="928" y="-42" width="156" height="30" as="geometry" />
        </mxCell>
        <mxCell id="QCxhBgs05hmmPSQC0AWl-458" value="&lt;div style=&quot;&quot;&gt;&lt;span style=&quot;background-color: initial;&quot;&gt;Ristorante&lt;/span&gt;&lt;/div&gt;&lt;div style=&quot;&quot;&gt;&lt;span style=&quot;font-size: 10px; background-color: initial;&quot;&gt;Via Mario Rossi 123, Bari&lt;/span&gt;&lt;/div&gt;" style="text;html=1;align=left;verticalAlign=middle;whiteSpace=wrap;rounded=0;movable=1;resizable=1;rotatable=1;deletable=1;editable=1;locked=0;connectable=1;" parent="1" vertex="1">
          <mxGeometry x="927" y="-3" width="121" height="30" as="geometry" />
        </mxCell>
        <mxCell id="QCxhBgs05hmmPSQC0AWl-459" value="&lt;u&gt;cambia&lt;/u&gt;" style="text;html=1;align=center;verticalAlign=middle;whiteSpace=wrap;rounded=0;movable=1;resizable=1;rotatable=1;deletable=1;editable=1;locked=0;connectable=1;" parent="1" vertex="1">
          <mxGeometry x="1140" y="-2" width="60" height="30" as="geometry" />
        </mxCell>
        <mxCell id="QCxhBgs05hmmPSQC0AWl-460" value="Modalità di ritiro&lt;div&gt;&lt;span style=&quot;font-size: 10px; background-color: initial;&quot;&gt;McDrive&lt;/span&gt;&lt;/div&gt;" style="text;html=1;align=left;verticalAlign=middle;whiteSpace=wrap;rounded=0;movable=1;resizable=1;rotatable=1;deletable=1;editable=1;locked=0;connectable=1;" parent="1" vertex="1">
          <mxGeometry x="927" y="49" width="107" height="30" as="geometry" />
        </mxCell>
        <mxCell id="QCxhBgs05hmmPSQC0AWl-461" value="&lt;u&gt;cambia&lt;/u&gt;" style="text;html=1;align=center;verticalAlign=middle;whiteSpace=wrap;rounded=0;movable=1;resizable=1;rotatable=1;deletable=1;editable=1;locked=0;connectable=1;" parent="1" vertex="1">
          <mxGeometry x="1151" y="48" width="39" height="30" as="geometry" />
        </mxCell>
        <mxCell id="QCxhBgs05hmmPSQC0AWl-462" value="Applica codice sconto&lt;div&gt;&lt;span style=&quot;font-size: 10px; background-color: initial;&quot;&gt;Codici disponibili nel profilo&lt;/span&gt;&lt;/div&gt;" style="text;html=1;align=left;verticalAlign=middle;whiteSpace=wrap;rounded=0;movable=1;resizable=1;rotatable=1;deletable=1;editable=1;locked=0;connectable=1;" parent="1" vertex="1">
          <mxGeometry x="928" y="100" width="181" height="30" as="geometry" />
        </mxCell>
        <mxCell id="QCxhBgs05hmmPSQC0AWl-463" value="" style="ellipse;whiteSpace=wrap;html=1;aspect=fixed;movable=1;resizable=1;rotatable=1;deletable=1;editable=1;locked=0;connectable=1;" parent="1" vertex="1">
          <mxGeometry x="1039" y="199" width="7" height="7" as="geometry" />
        </mxCell>
        <mxCell id="QCxhBgs05hmmPSQC0AWl-464" value="" style="ellipse;whiteSpace=wrap;html=1;aspect=fixed;movable=1;resizable=1;rotatable=1;deletable=1;editable=1;locked=0;connectable=1;fillColor=#000000;" parent="1" vertex="1">
          <mxGeometry x="1074" y="199" width="7" height="7" as="geometry" />
        </mxCell>
        <mxCell id="QCxhBgs05hmmPSQC0AWl-465" value="" style="triangle;whiteSpace=wrap;html=1;movable=1;resizable=1;rotatable=1;deletable=1;editable=1;locked=0;connectable=1;" parent="1" vertex="1">
          <mxGeometry x="1092" y="197" width="8" height="12" as="geometry" />
        </mxCell>
        <mxCell id="QCxhBgs05hmmPSQC0AWl-466" value="" style="triangle;whiteSpace=wrap;html=1;direction=west;movable=1;resizable=1;rotatable=1;deletable=1;editable=1;locked=0;connectable=1;" parent="1" vertex="1">
          <mxGeometry x="1020" y="197" width="8" height="12" as="geometry" />
        </mxCell>
        <mxCell id="QCxhBgs05hmmPSQC0AWl-467" value="" style="endArrow=none;html=1;rounded=0;movable=1;resizable=1;rotatable=1;deletable=1;editable=1;locked=0;connectable=1;" parent="1" edge="1">
          <mxGeometry width="50" height="50" relative="1" as="geometry">
            <mxPoint x="930" y="218" as="sourcePoint" />
            <mxPoint x="1190" y="218" as="targetPoint" />
          </mxGeometry>
        </mxCell>
        <mxCell id="QCxhBgs05hmmPSQC0AWl-468" value="&lt;font style=&quot;font-size: 14px;&quot;&gt;Totale senza sconto&lt;/font&gt;" style="text;html=1;align=left;verticalAlign=middle;whiteSpace=wrap;rounded=0;movable=1;resizable=1;rotatable=1;deletable=1;editable=1;locked=0;connectable=1;fontSize=14;" parent="1" vertex="1">
          <mxGeometry x="928" y="237" width="132" height="30" as="geometry" />
        </mxCell>
        <mxCell id="QCxhBgs05hmmPSQC0AWl-469" value="&lt;font style=&quot;font-size: 14px;&quot;&gt;10,00 €&lt;/font&gt;" style="text;html=1;align=center;verticalAlign=middle;whiteSpace=wrap;rounded=0;movable=1;resizable=1;rotatable=1;deletable=1;editable=1;locked=0;connectable=1;fontSize=14;" parent="1" vertex="1">
          <mxGeometry x="1142" y="238" width="49" height="30" as="geometry" />
        </mxCell>
        <mxCell id="QCxhBgs05hmmPSQC0AWl-470" value="CONFERMA ORDINE" style="rounded=1;whiteSpace=wrap;html=1;arcSize=12;movable=1;resizable=1;rotatable=1;deletable=1;editable=1;locked=0;connectable=1;" parent="1" vertex="1">
          <mxGeometry x="980" y="322" width="160" height="38" as="geometry" />
        </mxCell>
        <mxCell id="QCxhBgs05hmmPSQC0AWl-477" value="" style="ellipse;whiteSpace=wrap;html=1;aspect=fixed;movable=1;resizable=1;rotatable=1;deletable=1;editable=1;locked=0;connectable=1;" parent="1" vertex="1">
          <mxGeometry x="1056.8" y="199" width="7" height="7" as="geometry" />
        </mxCell>
        <mxCell id="QCxhBgs05hmmPSQC0AWl-478" value="" style="group" parent="1" vertex="1" connectable="0">
          <mxGeometry x="1020.3" y="139" width="80" height="50" as="geometry" />
        </mxCell>
        <mxCell id="QCxhBgs05hmmPSQC0AWl-479" value="" style="rounded=1;whiteSpace=wrap;html=1;movable=1;resizable=1;rotatable=1;deletable=1;editable=1;locked=0;connectable=1;" parent="QCxhBgs05hmmPSQC0AWl-478" vertex="1">
          <mxGeometry width="80" height="50" as="geometry" />
        </mxCell>
        <mxCell id="QCxhBgs05hmmPSQC0AWl-480" value="" style="whiteSpace=wrap;html=1;aspect=fixed;movable=1;resizable=1;rotatable=1;deletable=1;editable=1;locked=0;connectable=1;" parent="QCxhBgs05hmmPSQC0AWl-478" vertex="1">
          <mxGeometry x="7.999999999999953" y="9.166666666666679" width="21.386562203228877" height="21.386562203228877" as="geometry" />
        </mxCell>
        <mxCell id="QCxhBgs05hmmPSQC0AWl-481" value="-------" style="text;html=1;align=center;verticalAlign=middle;whiteSpace=wrap;rounded=0;movable=1;resizable=1;rotatable=1;deletable=1;editable=1;locked=0;connectable=1;" parent="QCxhBgs05hmmPSQC0AWl-478" vertex="1">
          <mxGeometry x="34.66666666666662" y="3.333333333333322" width="40" height="25" as="geometry" />
        </mxCell>
        <mxCell id="QCxhBgs05hmmPSQC0AWl-482" value="-------" style="text;html=1;align=center;verticalAlign=middle;whiteSpace=wrap;rounded=0;movable=1;resizable=1;rotatable=1;deletable=1;editable=1;locked=0;connectable=1;" parent="QCxhBgs05hmmPSQC0AWl-478" vertex="1">
          <mxGeometry x="34.66666666666662" y="16.666666666666668" width="40" height="25" as="geometry" />
        </mxCell>
        <mxCell id="QCxhBgs05hmmPSQC0AWl-483" value="" style="group;strokeWidth=3;rounded=1;strokeColor=default;" parent="1" vertex="1" connectable="0">
          <mxGeometry x="1110.3" y="139" width="80" height="50" as="geometry" />
        </mxCell>
        <mxCell id="QCxhBgs05hmmPSQC0AWl-484" value="" style="rounded=1;whiteSpace=wrap;html=1;movable=1;resizable=1;rotatable=1;deletable=1;editable=1;locked=0;connectable=1;" parent="QCxhBgs05hmmPSQC0AWl-483" vertex="1">
          <mxGeometry width="80" height="50" as="geometry" />
        </mxCell>
        <mxCell id="QCxhBgs05hmmPSQC0AWl-485" value="" style="whiteSpace=wrap;html=1;aspect=fixed;movable=1;resizable=1;rotatable=1;deletable=1;editable=1;locked=0;connectable=1;" parent="QCxhBgs05hmmPSQC0AWl-483" vertex="1">
          <mxGeometry x="7.999999999999953" y="9.166666666666679" width="21.386562203228877" height="21.386562203228877" as="geometry" />
        </mxCell>
        <mxCell id="QCxhBgs05hmmPSQC0AWl-486" value="-------" style="text;html=1;align=center;verticalAlign=middle;whiteSpace=wrap;rounded=0;movable=1;resizable=1;rotatable=1;deletable=1;editable=1;locked=0;connectable=1;" parent="QCxhBgs05hmmPSQC0AWl-483" vertex="1">
          <mxGeometry x="34.66666666666662" y="3.333333333333322" width="40" height="25" as="geometry" />
        </mxCell>
        <mxCell id="QCxhBgs05hmmPSQC0AWl-487" value="-------" style="text;html=1;align=center;verticalAlign=middle;whiteSpace=wrap;rounded=0;movable=1;resizable=1;rotatable=1;deletable=1;editable=1;locked=0;connectable=1;" parent="QCxhBgs05hmmPSQC0AWl-483" vertex="1">
          <mxGeometry x="34.66666666666662" y="16.666666666666668" width="40" height="25" as="geometry" />
        </mxCell>
        <mxCell id="QCxhBgs05hmmPSQC0AWl-488" value="" style="group" parent="1" vertex="1" connectable="0">
          <mxGeometry x="930.3" y="139" width="80" height="50" as="geometry" />
        </mxCell>
        <mxCell id="QCxhBgs05hmmPSQC0AWl-489" value="" style="rounded=1;whiteSpace=wrap;html=1;movable=1;resizable=1;rotatable=1;deletable=1;editable=1;locked=0;connectable=1;" parent="QCxhBgs05hmmPSQC0AWl-488" vertex="1">
          <mxGeometry width="80" height="50" as="geometry" />
        </mxCell>
        <mxCell id="QCxhBgs05hmmPSQC0AWl-490" value="" style="whiteSpace=wrap;html=1;aspect=fixed;movable=1;resizable=1;rotatable=1;deletable=1;editable=1;locked=0;connectable=1;" parent="QCxhBgs05hmmPSQC0AWl-488" vertex="1">
          <mxGeometry x="7.999999999999953" y="9.166666666666679" width="21.386562203228877" height="21.386562203228877" as="geometry" />
        </mxCell>
        <mxCell id="QCxhBgs05hmmPSQC0AWl-491" value="-------" style="text;html=1;align=center;verticalAlign=middle;whiteSpace=wrap;rounded=0;movable=1;resizable=1;rotatable=1;deletable=1;editable=1;locked=0;connectable=1;" parent="QCxhBgs05hmmPSQC0AWl-488" vertex="1">
          <mxGeometry x="34.66666666666662" y="3.333333333333322" width="40" height="25" as="geometry" />
        </mxCell>
        <mxCell id="QCxhBgs05hmmPSQC0AWl-492" value="-------" style="text;html=1;align=center;verticalAlign=middle;whiteSpace=wrap;rounded=0;movable=1;resizable=1;rotatable=1;deletable=1;editable=1;locked=0;connectable=1;" parent="QCxhBgs05hmmPSQC0AWl-488" vertex="1">
          <mxGeometry x="34.66666666666662" y="16.666666666666668" width="40" height="25" as="geometry" />
        </mxCell>
        <mxCell id="QCxhBgs05hmmPSQC0AWl-371" value="" style="endArrow=classic;html=1;rounded=0;edgeStyle=orthogonalEdgeStyle;curved=1;exitX=1.009;exitY=0.22;exitDx=0;exitDy=0;exitPerimeter=0;" parent="1" source="QCxhBgs05hmmPSQC0AWl-437" edge="1">
          <mxGeometry width="50" height="50" relative="1" as="geometry">
            <mxPoint x="326.972" y="143.0239999999999" as="sourcePoint" />
            <mxPoint x="1190" y="158" as="targetPoint" />
            <Array as="points">
              <mxPoint x="430" y="150" />
              <mxPoint x="430" y="-188" />
              <mxPoint x="1282" y="-188" />
              <mxPoint x="1282" y="158" />
            </Array>
          </mxGeometry>
        </mxCell>
        <mxCell id="QCxhBgs05hmmPSQC0AWl-372" value="L&#39;utente clicca su uno sconto da applicare" style="edgeLabel;html=1;align=center;verticalAlign=middle;resizable=0;points=[];" parent="QCxhBgs05hmmPSQC0AWl-371" vertex="1" connectable="0">
          <mxGeometry x="-0.0947" y="-4" relative="1" as="geometry">
            <mxPoint as="offset" />
          </mxGeometry>
        </mxCell>
        <mxCell id="QCxhBgs05hmmPSQC0AWl-493" value="&lt;font style=&quot;font-size: 14px;&quot;&gt;Codice Ritiro McDrive&lt;/font&gt;" style="text;html=1;align=center;verticalAlign=middle;whiteSpace=wrap;rounded=0;" parent="1" vertex="1">
          <mxGeometry x="575" y="-4" width="146" height="30" as="geometry" />
        </mxCell>
        <mxCell id="QCxhBgs05hmmPSQC0AWl-494" value="&lt;font style=&quot;font-size: 45px;&quot;&gt;198&lt;/font&gt;" style="rounded=1;whiteSpace=wrap;html=1;" parent="1" vertex="1">
          <mxGeometry x="588" y="37" width="120" height="93" as="geometry" />
        </mxCell>
        <mxCell id="QCxhBgs05hmmPSQC0AWl-495" value="Grazie per averci scelto!" style="text;html=1;align=center;verticalAlign=middle;whiteSpace=wrap;rounded=0;" parent="1" vertex="1">
          <mxGeometry x="582" y="151" width="133" height="30" as="geometry" />
        </mxCell>
        <mxCell id="QCxhBgs05hmmPSQC0AWl-496" value="CONFERMA RITIRO" style="rounded=1;whiteSpace=wrap;html=1;arcSize=12;movable=1;resizable=1;rotatable=1;deletable=1;editable=1;locked=0;connectable=1;" parent="1" vertex="1">
          <mxGeometry x="564" y="280" width="168" height="38" as="geometry" />
        </mxCell>
        <mxCell id="QCxhBgs05hmmPSQC0AWl-497" value="" style="rounded=1;whiteSpace=wrap;html=1;arcSize=8;movable=1;resizable=1;rotatable=1;deletable=1;editable=1;locked=0;connectable=1;" parent="1" vertex="1">
          <mxGeometry x="520" y="-96" width="279" height="456" as="geometry" />
        </mxCell>
        <mxCell id="QCxhBgs05hmmPSQC0AWl-498" value="" style="endArrow=open;html=1;rounded=0;fontSize=12;startSize=8;endSize=8;curved=0;startArrow=none;startFill=0;entryX=0.448;entryY=0.496;entryDx=0;entryDy=0;entryPerimeter=0;endFill=0;movable=1;resizable=1;rotatable=1;deletable=1;editable=1;locked=0;connectable=1;" parent="1" edge="1">
          <mxGeometry width="50" height="50" relative="1" as="geometry">
            <mxPoint x="541" y="-77" as="sourcePoint" />
            <mxPoint x="526.9979999999999" y="-76.80799999999999" as="targetPoint" />
          </mxGeometry>
        </mxCell>
        <mxCell id="QCxhBgs05hmmPSQC0AWl-499" value="&lt;font style=&quot;font-size: 10px;&quot;&gt;SELEZIONA&lt;/font&gt;" style="text;html=1;align=center;verticalAlign=middle;whiteSpace=wrap;rounded=0;fontSize=10;movable=1;resizable=1;rotatable=1;deletable=1;editable=1;locked=0;connectable=1;" parent="1" vertex="1">
          <mxGeometry x="555" y="-94" width="58" height="30" as="geometry" />
        </mxCell>
        <mxCell id="QCxhBgs05hmmPSQC0AWl-500" value="&lt;font style=&quot;font-size: 10px;&quot;&gt;CONFERMA E PAGA&lt;/font&gt;" style="text;html=1;align=center;verticalAlign=middle;whiteSpace=wrap;rounded=0;fontSize=10;movable=1;resizable=1;rotatable=1;deletable=1;editable=1;locked=0;connectable=1;" parent="1" vertex="1">
          <mxGeometry x="622" y="-94" width="98" height="30" as="geometry" />
        </mxCell>
        <mxCell id="QCxhBgs05hmmPSQC0AWl-501" value="&lt;font style=&quot;font-size: 10px;&quot;&gt;RITIRA&lt;/font&gt;" style="text;html=1;align=center;verticalAlign=middle;whiteSpace=wrap;rounded=0;fontSize=10;movable=1;resizable=1;rotatable=1;deletable=1;editable=1;locked=0;connectable=1;" parent="1" vertex="1">
          <mxGeometry x="732" y="-94" width="33" height="30" as="geometry" />
        </mxCell>
        <mxCell id="QCxhBgs05hmmPSQC0AWl-502" value="" style="ellipse;whiteSpace=wrap;html=1;aspect=fixed;fillStyle=auto;fillColor=#000000;movable=1;resizable=1;rotatable=1;deletable=1;editable=1;locked=0;connectable=1;" parent="1" vertex="1">
          <mxGeometry x="582" y="-71" width="4" height="4" as="geometry" />
        </mxCell>
        <mxCell id="QCxhBgs05hmmPSQC0AWl-503" value="" style="ellipse;whiteSpace=wrap;html=1;aspect=fixed;fillStyle=auto;fillColor=#000000;movable=1;resizable=1;rotatable=1;deletable=1;editable=1;locked=0;connectable=1;" parent="1" vertex="1">
          <mxGeometry x="667" y="-71" width="4" height="4" as="geometry" />
        </mxCell>
        <mxCell id="QCxhBgs05hmmPSQC0AWl-504" value="" style="ellipse;whiteSpace=wrap;html=1;aspect=fixed;fillStyle=auto;fillColor=#000000;movable=1;resizable=1;rotatable=1;deletable=1;editable=1;locked=0;connectable=1;" parent="1" vertex="1">
          <mxGeometry x="748" y="-71" width="4" height="4" as="geometry" />
        </mxCell>
        <mxCell id="QCxhBgs05hmmPSQC0AWl-505" value="" style="endArrow=none;html=1;rounded=0;movable=1;resizable=1;rotatable=1;deletable=1;editable=1;locked=0;connectable=1;" parent="1" edge="1">
          <mxGeometry width="50" height="50" relative="1" as="geometry">
            <mxPoint x="590" y="-69" as="sourcePoint" />
            <mxPoint x="664" y="-69" as="targetPoint" />
          </mxGeometry>
        </mxCell>
        <mxCell id="QCxhBgs05hmmPSQC0AWl-506" value="" style="endArrow=none;html=1;rounded=0;movable=1;resizable=1;rotatable=1;deletable=1;editable=1;locked=0;connectable=1;" parent="1" edge="1">
          <mxGeometry width="50" height="50" relative="1" as="geometry">
            <mxPoint x="673" y="-69" as="sourcePoint" />
            <mxPoint x="746" y="-69" as="targetPoint" />
          </mxGeometry>
        </mxCell>
        <mxCell id="QCxhBgs05hmmPSQC0AWl-507" value="" style="endArrow=none;html=1;rounded=0;movable=1;resizable=1;rotatable=1;deletable=1;editable=1;locked=0;connectable=1;" parent="1" edge="1">
          <mxGeometry width="50" height="50" relative="1" as="geometry">
            <mxPoint x="520" y="-59" as="sourcePoint" />
            <mxPoint x="799" y="-59" as="targetPoint" />
          </mxGeometry>
        </mxCell>
        <mxCell id="QCxhBgs05hmmPSQC0AWl-633" value="&lt;font style=&quot;font-size: 14px;&quot;&gt;Codice Ritiro McDrive&lt;/font&gt;" style="text;html=1;align=center;verticalAlign=middle;whiteSpace=wrap;rounded=0;" parent="1" vertex="1">
          <mxGeometry x="586" y="34" width="146" height="30" as="geometry" />
        </mxCell>
        <mxCell id="QCxhBgs05hmmPSQC0AWl-634" value="&lt;font style=&quot;font-size: 45px;&quot;&gt;198&lt;/font&gt;" style="rounded=1;whiteSpace=wrap;html=1;" parent="1" vertex="1">
          <mxGeometry x="598" y="75" width="120" height="93" as="geometry" />
        </mxCell>
        <mxCell id="QCxhBgs05hmmPSQC0AWl-635" value="Grazie per averci scelto!" style="text;html=1;align=center;verticalAlign=middle;whiteSpace=wrap;rounded=0;" parent="1" vertex="1">
          <mxGeometry x="592" y="189" width="133" height="30" as="geometry" />
        </mxCell>
        <mxCell id="QCxhBgs05hmmPSQC0AWl-636" value="CONFERMA RITIRO" style="rounded=1;whiteSpace=wrap;html=1;arcSize=12;movable=1;resizable=1;rotatable=1;deletable=1;editable=1;locked=0;connectable=1;" parent="1" vertex="1">
          <mxGeometry x="580" y="322" width="160" height="38" as="geometry" />
        </mxCell>
        <mxCell id="QCxhBgs05hmmPSQC0AWl-637" value="&lt;font style=&quot;font-size: 16px;&quot;&gt;RITIRA&lt;/font&gt;" style="text;html=1;align=left;verticalAlign=middle;whiteSpace=wrap;rounded=0;fontSize=16;movable=1;resizable=1;rotatable=1;deletable=1;editable=1;locked=0;connectable=1;" parent="1" vertex="1">
          <mxGeometry x="527" y="-42" width="156" height="30" as="geometry" />
        </mxCell>
        <mxCell id="QCxhBgs05hmmPSQC0AWl-638" value="" style="endArrow=classic;html=1;rounded=0;edgeStyle=orthogonalEdgeStyle;curved=1;entryX=1.004;entryY=0.167;entryDx=0;entryDy=0;entryPerimeter=0;" parent="1" edge="1">
          <mxGeometry width="50" height="50" relative="1" as="geometry">
            <mxPoint x="1004" y="360" as="sourcePoint" />
            <mxPoint x="798.9960000000002" y="-19.847999999999956" as="targetPoint" />
            <Array as="points">
              <mxPoint x="1003.88" y="390" />
              <mxPoint x="858.88" y="390" />
              <mxPoint x="858.88" y="-20" />
            </Array>
          </mxGeometry>
        </mxCell>
        <mxCell id="QCxhBgs05hmmPSQC0AWl-639" value="L&#39;utente clicca&amp;nbsp;&lt;div&gt;conferma ordine&amp;nbsp;&lt;/div&gt;&lt;div&gt;dopo aver&amp;nbsp;&lt;/div&gt;&lt;div&gt;selezionato&amp;nbsp;&lt;/div&gt;&lt;div&gt;uno sconto&lt;/div&gt;" style="edgeLabel;html=1;align=center;verticalAlign=middle;resizable=0;points=[];" parent="QCxhBgs05hmmPSQC0AWl-638" vertex="1" connectable="0">
          <mxGeometry x="-0.089" y="4" relative="1" as="geometry">
            <mxPoint x="5" y="47" as="offset" />
          </mxGeometry>
        </mxCell>
        <mxCell id="QCxhBgs05hmmPSQC0AWl-640" value="&lt;font style=&quot;font-size: 14px;&quot;&gt;Sconto&lt;/font&gt;" style="text;html=1;align=left;verticalAlign=middle;whiteSpace=wrap;rounded=0;movable=1;resizable=1;rotatable=1;deletable=1;editable=1;locked=0;connectable=1;fontSize=14;" parent="1" vertex="1">
          <mxGeometry x="928" y="257" width="132" height="30" as="geometry" />
        </mxCell>
        <mxCell id="QCxhBgs05hmmPSQC0AWl-641" value="&lt;font style=&quot;font-size: 14px;&quot;&gt;- 2,00 €&lt;/font&gt;" style="text;html=1;align=left;verticalAlign=middle;whiteSpace=wrap;rounded=0;movable=1;resizable=1;rotatable=1;deletable=1;editable=1;locked=0;connectable=1;fontSize=14;" parent="1" vertex="1">
          <mxGeometry x="1141" y="258" width="50" height="30" as="geometry" />
        </mxCell>
        <mxCell id="QCxhBgs05hmmPSQC0AWl-642" value="&lt;font style=&quot;font-size: 14px;&quot;&gt;Totale&lt;/font&gt;" style="text;html=1;align=left;verticalAlign=middle;whiteSpace=wrap;rounded=0;movable=1;resizable=1;rotatable=1;deletable=1;editable=1;locked=0;connectable=1;fontSize=14;" parent="1" vertex="1">
          <mxGeometry x="928" y="277" width="132" height="30" as="geometry" />
        </mxCell>
        <mxCell id="QCxhBgs05hmmPSQC0AWl-643" value="&lt;font style=&quot;font-size: 14px;&quot;&gt;8,00 €&lt;/font&gt;" style="text;html=1;align=left;verticalAlign=middle;whiteSpace=wrap;rounded=0;movable=1;resizable=1;rotatable=1;deletable=1;editable=1;locked=0;connectable=1;fontSize=14;" parent="1" vertex="1">
          <mxGeometry x="1150" y="278" width="50" height="30" as="geometry" />
        </mxCell>
        <mxCell id="QCxhBgs05hmmPSQC0AWl-644" value="Conferma il ritiro solo dopo aver ricevuto l&#39;ordine" style="text;html=1;align=center;verticalAlign=middle;whiteSpace=wrap;rounded=0;" parent="1" vertex="1">
          <mxGeometry x="581" y="279" width="158" height="30" as="geometry" />
        </mxCell>
        <mxCell id="QCxhBgs05hmmPSQC0AWl-646" value="" style="endArrow=classic;html=1;rounded=0;exitX=0.866;exitY=1.039;exitDx=0;exitDy=0;exitPerimeter=0;" parent="1" source="QCxhBgs05hmmPSQC0AWl-636" edge="1">
          <mxGeometry width="50" height="50" relative="1" as="geometry">
            <mxPoint x="670" y="320" as="sourcePoint" />
            <mxPoint x="810" y="440" as="targetPoint" />
          </mxGeometry>
        </mxCell>
        <mxCell id="QCxhBgs05hmmPSQC0AWl-647" value="L&#39;utente clicca conferma ritiro, vedi Task 3" style="edgeLabel;html=1;align=center;verticalAlign=middle;resizable=0;points=[];" parent="QCxhBgs05hmmPSQC0AWl-646" vertex="1" connectable="0">
          <mxGeometry x="0.5859" y="3" relative="1" as="geometry">
            <mxPoint as="offset" />
          </mxGeometry>
        </mxCell>
        <mxCell id="QCxhBgs05hmmPSQC0AWl-648" value="" style="endArrow=none;html=1;rounded=0;movable=1;resizable=1;rotatable=1;deletable=1;editable=1;locked=0;connectable=1;" parent="1" edge="1">
          <mxGeometry width="50" height="50" relative="1" as="geometry">
            <mxPoint x="130" y="218" as="sourcePoint" />
            <mxPoint x="390" y="218" as="targetPoint" />
          </mxGeometry>
        </mxCell>
        <mxCell id="Jr9o1m4znOFmZxjSKrVi-1" value="" style="rounded=1;whiteSpace=wrap;html=1;arcSize=8;movable=1;resizable=1;rotatable=1;deletable=1;editable=1;locked=0;connectable=1;" vertex="1" parent="1">
          <mxGeometry x="20" y="644" width="280" height="456" as="geometry" />
        </mxCell>
        <mxCell id="Jr9o1m4znOFmZxjSKrVi-2" value="" style="endArrow=open;html=1;rounded=0;fontSize=12;startSize=8;endSize=8;curved=0;startArrow=none;startFill=0;entryX=0.448;entryY=0.496;entryDx=0;entryDy=0;entryPerimeter=0;endFill=0;movable=1;resizable=1;rotatable=1;deletable=1;editable=1;locked=0;connectable=1;" edge="1" parent="1">
          <mxGeometry width="50" height="50" relative="1" as="geometry">
            <mxPoint x="42" y="663" as="sourcePoint" />
            <mxPoint x="27.997999999999934" y="663.192" as="targetPoint" />
          </mxGeometry>
        </mxCell>
        <mxCell id="Jr9o1m4znOFmZxjSKrVi-3" value="&lt;font style=&quot;font-size: 10px;&quot;&gt;SELEZIONA&lt;/font&gt;" style="text;html=1;align=center;verticalAlign=middle;whiteSpace=wrap;rounded=0;fontSize=10;movable=1;resizable=1;rotatable=1;deletable=1;editable=1;locked=0;connectable=1;" vertex="1" parent="1">
          <mxGeometry x="56" y="646" width="58" height="30" as="geometry" />
        </mxCell>
        <mxCell id="Jr9o1m4znOFmZxjSKrVi-4" value="&lt;font style=&quot;font-size: 10px;&quot;&gt;CONFERMA E PAGA&lt;/font&gt;" style="text;html=1;align=center;verticalAlign=middle;whiteSpace=wrap;rounded=0;fontSize=10;movable=1;resizable=1;rotatable=1;deletable=1;editable=1;locked=0;connectable=1;" vertex="1" parent="1">
          <mxGeometry x="123" y="646" width="98" height="30" as="geometry" />
        </mxCell>
        <mxCell id="Jr9o1m4znOFmZxjSKrVi-5" value="&lt;font style=&quot;font-size: 10px;&quot;&gt;RITIRA&lt;/font&gt;" style="text;html=1;align=center;verticalAlign=middle;whiteSpace=wrap;rounded=0;fontSize=10;movable=1;resizable=1;rotatable=1;deletable=1;editable=1;locked=0;connectable=1;" vertex="1" parent="1">
          <mxGeometry x="233" y="646" width="33" height="30" as="geometry" />
        </mxCell>
        <mxCell id="Jr9o1m4znOFmZxjSKrVi-6" value="" style="ellipse;whiteSpace=wrap;html=1;aspect=fixed;fillStyle=auto;fillColor=#000000;movable=1;resizable=1;rotatable=1;deletable=1;editable=1;locked=0;connectable=1;" vertex="1" parent="1">
          <mxGeometry x="83" y="669" width="4" height="4" as="geometry" />
        </mxCell>
        <mxCell id="Jr9o1m4znOFmZxjSKrVi-7" value="" style="ellipse;whiteSpace=wrap;html=1;aspect=fixed;fillStyle=auto;fillColor=#000000;movable=1;resizable=1;rotatable=1;deletable=1;editable=1;locked=0;connectable=1;" vertex="1" parent="1">
          <mxGeometry x="168" y="669" width="4" height="4" as="geometry" />
        </mxCell>
        <mxCell id="Jr9o1m4znOFmZxjSKrVi-8" value="" style="ellipse;whiteSpace=wrap;html=1;aspect=fixed;fillStyle=auto;fillColor=none;movable=1;resizable=1;rotatable=1;deletable=1;editable=1;locked=0;connectable=1;" vertex="1" parent="1">
          <mxGeometry x="249" y="669" width="4" height="4" as="geometry" />
        </mxCell>
        <mxCell id="Jr9o1m4znOFmZxjSKrVi-9" value="" style="endArrow=none;html=1;rounded=0;movable=1;resizable=1;rotatable=1;deletable=1;editable=1;locked=0;connectable=1;" edge="1" parent="1">
          <mxGeometry width="50" height="50" relative="1" as="geometry">
            <mxPoint x="91" y="671" as="sourcePoint" />
            <mxPoint x="165" y="671" as="targetPoint" />
          </mxGeometry>
        </mxCell>
        <mxCell id="Jr9o1m4znOFmZxjSKrVi-10" value="" style="endArrow=none;dashed=1;html=1;rounded=0;movable=1;resizable=1;rotatable=1;deletable=1;editable=1;locked=0;connectable=1;" edge="1" parent="1">
          <mxGeometry width="50" height="50" relative="1" as="geometry">
            <mxPoint x="174" y="671" as="sourcePoint" />
            <mxPoint x="247" y="671" as="targetPoint" />
          </mxGeometry>
        </mxCell>
        <mxCell id="Jr9o1m4znOFmZxjSKrVi-11" value="" style="endArrow=none;html=1;rounded=0;movable=1;resizable=1;rotatable=1;deletable=1;editable=1;locked=0;connectable=1;" edge="1" parent="1">
          <mxGeometry width="50" height="50" relative="1" as="geometry">
            <mxPoint x="20" y="681" as="sourcePoint" />
            <mxPoint x="300" y="681" as="targetPoint" />
          </mxGeometry>
        </mxCell>
        <mxCell id="Jr9o1m4znOFmZxjSKrVi-12" value="&lt;font style=&quot;font-size: 16px;&quot;&gt;CONFERMA E PAGA&lt;/font&gt;" style="text;html=1;align=center;verticalAlign=middle;whiteSpace=wrap;rounded=0;fontSize=16;movable=1;resizable=1;rotatable=1;deletable=1;editable=1;locked=0;connectable=1;" vertex="1" parent="1">
          <mxGeometry x="28" y="698" width="156" height="30" as="geometry" />
        </mxCell>
        <mxCell id="Jr9o1m4znOFmZxjSKrVi-13" value="&lt;div style=&quot;&quot;&gt;&lt;span style=&quot;background-color: initial;&quot;&gt;Ristorante&lt;/span&gt;&lt;/div&gt;&lt;div style=&quot;&quot;&gt;&lt;span style=&quot;font-size: 10px; background-color: initial;&quot;&gt;Via Mario Rossi 123, Bari&lt;/span&gt;&lt;/div&gt;" style="text;html=1;align=left;verticalAlign=middle;whiteSpace=wrap;rounded=0;movable=1;resizable=1;rotatable=1;deletable=1;editable=1;locked=0;connectable=1;" vertex="1" parent="1">
          <mxGeometry x="27" y="737" width="121" height="30" as="geometry" />
        </mxCell>
        <mxCell id="Jr9o1m4znOFmZxjSKrVi-14" value="&lt;u&gt;cambia&lt;/u&gt;" style="text;html=1;align=center;verticalAlign=middle;whiteSpace=wrap;rounded=0;movable=1;resizable=1;rotatable=1;deletable=1;editable=1;locked=0;connectable=1;" vertex="1" parent="1">
          <mxGeometry x="240" y="738" width="60" height="30" as="geometry" />
        </mxCell>
        <mxCell id="Jr9o1m4znOFmZxjSKrVi-15" value="Modalità di ritiro&lt;div&gt;&lt;span style=&quot;font-size: 10px; background-color: initial;&quot;&gt;McDrive&lt;/span&gt;&lt;/div&gt;" style="text;html=1;align=left;verticalAlign=middle;whiteSpace=wrap;rounded=0;movable=1;resizable=1;rotatable=1;deletable=1;editable=1;locked=0;connectable=1;" vertex="1" parent="1">
          <mxGeometry x="27" y="789" width="107" height="30" as="geometry" />
        </mxCell>
        <mxCell id="Jr9o1m4znOFmZxjSKrVi-16" value="&lt;u&gt;cambia&lt;/u&gt;" style="text;html=1;align=center;verticalAlign=middle;whiteSpace=wrap;rounded=0;movable=1;resizable=1;rotatable=1;deletable=1;editable=1;locked=0;connectable=1;" vertex="1" parent="1">
          <mxGeometry x="251" y="788" width="39" height="30" as="geometry" />
        </mxCell>
        <mxCell id="Jr9o1m4znOFmZxjSKrVi-17" value="Applica codice sconto&lt;div&gt;&lt;span style=&quot;font-size: 10px; background-color: initial;&quot;&gt;Codici disponibili nel profilo&lt;/span&gt;&lt;/div&gt;" style="text;html=1;align=left;verticalAlign=middle;whiteSpace=wrap;rounded=0;movable=1;resizable=1;rotatable=1;deletable=1;editable=1;locked=0;connectable=1;" vertex="1" parent="1">
          <mxGeometry x="28" y="840" width="181" height="30" as="geometry" />
        </mxCell>
        <mxCell id="Jr9o1m4znOFmZxjSKrVi-18" value="" style="ellipse;whiteSpace=wrap;html=1;aspect=fixed;movable=1;resizable=1;rotatable=1;deletable=1;editable=1;locked=0;connectable=1;" vertex="1" parent="1">
          <mxGeometry x="139" y="939" width="7" height="7" as="geometry" />
        </mxCell>
        <mxCell id="Jr9o1m4znOFmZxjSKrVi-19" value="" style="ellipse;whiteSpace=wrap;html=1;aspect=fixed;movable=1;resizable=1;rotatable=1;deletable=1;editable=1;locked=0;connectable=1;fillColor=none;" vertex="1" parent="1">
          <mxGeometry x="174" y="939" width="7" height="7" as="geometry" />
        </mxCell>
        <mxCell id="Jr9o1m4znOFmZxjSKrVi-20" value="" style="triangle;whiteSpace=wrap;html=1;movable=1;resizable=1;rotatable=1;deletable=1;editable=1;locked=0;connectable=1;" vertex="1" parent="1">
          <mxGeometry x="192" y="937" width="8" height="12" as="geometry" />
        </mxCell>
        <mxCell id="Jr9o1m4znOFmZxjSKrVi-21" value="" style="triangle;whiteSpace=wrap;html=1;direction=west;movable=1;resizable=1;rotatable=1;deletable=1;editable=1;locked=0;connectable=1;" vertex="1" parent="1">
          <mxGeometry x="120" y="937" width="8" height="12" as="geometry" />
        </mxCell>
        <mxCell id="Jr9o1m4znOFmZxjSKrVi-22" value="&lt;font style=&quot;font-size: 14px;&quot;&gt;Totale&lt;/font&gt;" style="text;html=1;align=left;verticalAlign=middle;whiteSpace=wrap;rounded=0;movable=1;resizable=1;rotatable=1;deletable=1;editable=1;locked=0;connectable=1;fontSize=14;" vertex="1" parent="1">
          <mxGeometry x="28" y="977" width="132" height="30" as="geometry" />
        </mxCell>
        <mxCell id="Jr9o1m4znOFmZxjSKrVi-23" value="&lt;font style=&quot;font-size: 14px;&quot;&gt;10,00 €&lt;/font&gt;" style="text;html=1;align=center;verticalAlign=middle;whiteSpace=wrap;rounded=0;movable=1;resizable=1;rotatable=1;deletable=1;editable=1;locked=0;connectable=1;fontSize=14;" vertex="1" parent="1">
          <mxGeometry x="242" y="978" width="49" height="30" as="geometry" />
        </mxCell>
        <mxCell id="Jr9o1m4znOFmZxjSKrVi-24" value="CONFERMA ORDINE" style="rounded=1;whiteSpace=wrap;html=1;arcSize=12;movable=1;resizable=1;rotatable=1;deletable=1;editable=1;locked=0;connectable=1;" vertex="1" parent="1">
          <mxGeometry x="80" y="1062" width="160" height="38" as="geometry" />
        </mxCell>
        <mxCell id="Jr9o1m4znOFmZxjSKrVi-27" value="" style="ellipse;whiteSpace=wrap;html=1;aspect=fixed;movable=1;resizable=1;rotatable=1;deletable=1;editable=1;locked=0;connectable=1;" vertex="1" parent="1">
          <mxGeometry x="156.8" y="939" width="7" height="7" as="geometry" />
        </mxCell>
        <mxCell id="Jr9o1m4znOFmZxjSKrVi-28" value="" style="group" vertex="1" connectable="0" parent="1">
          <mxGeometry x="120.30000000000001" y="879" width="80" height="50" as="geometry" />
        </mxCell>
        <mxCell id="Jr9o1m4znOFmZxjSKrVi-29" value="" style="rounded=1;whiteSpace=wrap;html=1;movable=1;resizable=1;rotatable=1;deletable=1;editable=1;locked=0;connectable=1;" vertex="1" parent="Jr9o1m4znOFmZxjSKrVi-28">
          <mxGeometry width="80" height="50" as="geometry" />
        </mxCell>
        <mxCell id="Jr9o1m4znOFmZxjSKrVi-30" value="" style="whiteSpace=wrap;html=1;aspect=fixed;movable=1;resizable=1;rotatable=1;deletable=1;editable=1;locked=0;connectable=1;" vertex="1" parent="Jr9o1m4znOFmZxjSKrVi-28">
          <mxGeometry x="7.999999999999953" y="9.166666666666679" width="21.386562203228877" height="21.386562203228877" as="geometry" />
        </mxCell>
        <mxCell id="Jr9o1m4znOFmZxjSKrVi-31" value="-------" style="text;html=1;align=center;verticalAlign=middle;whiteSpace=wrap;rounded=0;movable=1;resizable=1;rotatable=1;deletable=1;editable=1;locked=0;connectable=1;" vertex="1" parent="Jr9o1m4znOFmZxjSKrVi-28">
          <mxGeometry x="34.66666666666662" y="3.333333333333322" width="40" height="25" as="geometry" />
        </mxCell>
        <mxCell id="Jr9o1m4znOFmZxjSKrVi-32" value="-------" style="text;html=1;align=center;verticalAlign=middle;whiteSpace=wrap;rounded=0;movable=1;resizable=1;rotatable=1;deletable=1;editable=1;locked=0;connectable=1;" vertex="1" parent="Jr9o1m4znOFmZxjSKrVi-28">
          <mxGeometry x="34.66666666666662" y="16.666666666666668" width="40" height="25" as="geometry" />
        </mxCell>
        <mxCell id="Jr9o1m4znOFmZxjSKrVi-33" value="" style="group" vertex="1" connectable="0" parent="1">
          <mxGeometry x="210.3" y="879" width="80" height="50" as="geometry" />
        </mxCell>
        <mxCell id="Jr9o1m4znOFmZxjSKrVi-34" value="" style="rounded=1;whiteSpace=wrap;html=1;movable=1;resizable=1;rotatable=1;deletable=1;editable=1;locked=0;connectable=1;" vertex="1" parent="Jr9o1m4znOFmZxjSKrVi-33">
          <mxGeometry width="80" height="50" as="geometry" />
        </mxCell>
        <mxCell id="Jr9o1m4znOFmZxjSKrVi-35" value="" style="whiteSpace=wrap;html=1;aspect=fixed;movable=1;resizable=1;rotatable=1;deletable=1;editable=1;locked=0;connectable=1;" vertex="1" parent="Jr9o1m4znOFmZxjSKrVi-33">
          <mxGeometry x="7.999999999999953" y="9.166666666666679" width="21.386562203228877" height="21.386562203228877" as="geometry" />
        </mxCell>
        <mxCell id="Jr9o1m4znOFmZxjSKrVi-36" value="-------" style="text;html=1;align=center;verticalAlign=middle;whiteSpace=wrap;rounded=0;movable=1;resizable=1;rotatable=1;deletable=1;editable=1;locked=0;connectable=1;" vertex="1" parent="Jr9o1m4znOFmZxjSKrVi-33">
          <mxGeometry x="34.66666666666662" y="3.333333333333322" width="40" height="25" as="geometry" />
        </mxCell>
        <mxCell id="Jr9o1m4znOFmZxjSKrVi-37" value="-------" style="text;html=1;align=center;verticalAlign=middle;whiteSpace=wrap;rounded=0;movable=1;resizable=1;rotatable=1;deletable=1;editable=1;locked=0;connectable=1;" vertex="1" parent="Jr9o1m4znOFmZxjSKrVi-33">
          <mxGeometry x="34.66666666666662" y="16.666666666666668" width="40" height="25" as="geometry" />
        </mxCell>
        <mxCell id="Jr9o1m4znOFmZxjSKrVi-38" value="" style="group" vertex="1" connectable="0" parent="1">
          <mxGeometry x="30.30000000000001" y="879" width="80" height="50" as="geometry" />
        </mxCell>
        <mxCell id="Jr9o1m4znOFmZxjSKrVi-39" value="" style="rounded=1;whiteSpace=wrap;html=1;movable=1;resizable=1;rotatable=1;deletable=1;editable=1;locked=0;connectable=1;" vertex="1" parent="Jr9o1m4znOFmZxjSKrVi-38">
          <mxGeometry width="80" height="50" as="geometry" />
        </mxCell>
        <mxCell id="Jr9o1m4znOFmZxjSKrVi-40" value="" style="whiteSpace=wrap;html=1;aspect=fixed;movable=1;resizable=1;rotatable=1;deletable=1;editable=1;locked=0;connectable=1;" vertex="1" parent="Jr9o1m4znOFmZxjSKrVi-38">
          <mxGeometry x="7.999999999999953" y="9.166666666666679" width="21.386562203228877" height="21.386562203228877" as="geometry" />
        </mxCell>
        <mxCell id="Jr9o1m4znOFmZxjSKrVi-41" value="-------" style="text;html=1;align=center;verticalAlign=middle;whiteSpace=wrap;rounded=0;movable=1;resizable=1;rotatable=1;deletable=1;editable=1;locked=0;connectable=1;" vertex="1" parent="Jr9o1m4znOFmZxjSKrVi-38">
          <mxGeometry x="34.66666666666662" y="3.333333333333322" width="40" height="25" as="geometry" />
        </mxCell>
        <mxCell id="Jr9o1m4znOFmZxjSKrVi-42" value="-------" style="text;html=1;align=center;verticalAlign=middle;whiteSpace=wrap;rounded=0;movable=1;resizable=1;rotatable=1;deletable=1;editable=1;locked=0;connectable=1;" vertex="1" parent="Jr9o1m4znOFmZxjSKrVi-38">
          <mxGeometry x="34.66666666666662" y="16.666666666666668" width="40" height="25" as="geometry" />
        </mxCell>
        <mxCell id="Jr9o1m4znOFmZxjSKrVi-43" value="" style="rounded=1;whiteSpace=wrap;html=1;arcSize=8;movable=1;resizable=1;rotatable=1;deletable=1;editable=1;locked=0;connectable=1;" vertex="1" parent="1">
          <mxGeometry x="820" y="644" width="280" height="456" as="geometry" />
        </mxCell>
        <mxCell id="Jr9o1m4znOFmZxjSKrVi-44" value="" style="endArrow=open;html=1;rounded=0;fontSize=12;startSize=8;endSize=8;curved=0;startArrow=none;startFill=0;entryX=0.448;entryY=0.496;entryDx=0;entryDy=0;entryPerimeter=0;endFill=0;movable=1;resizable=1;rotatable=1;deletable=1;editable=1;locked=0;connectable=1;" edge="1" parent="1">
          <mxGeometry width="50" height="50" relative="1" as="geometry">
            <mxPoint x="842" y="663" as="sourcePoint" />
            <mxPoint x="827.9979999999999" y="663.192" as="targetPoint" />
          </mxGeometry>
        </mxCell>
        <mxCell id="Jr9o1m4znOFmZxjSKrVi-45" value="&lt;font style=&quot;font-size: 10px;&quot;&gt;SELEZIONA&lt;/font&gt;" style="text;html=1;align=center;verticalAlign=middle;whiteSpace=wrap;rounded=0;fontSize=10;movable=1;resizable=1;rotatable=1;deletable=1;editable=1;locked=0;connectable=1;" vertex="1" parent="1">
          <mxGeometry x="856" y="646" width="58" height="30" as="geometry" />
        </mxCell>
        <mxCell id="Jr9o1m4znOFmZxjSKrVi-46" value="&lt;font style=&quot;font-size: 10px;&quot;&gt;CONFERMA E PAGA&lt;/font&gt;" style="text;html=1;align=center;verticalAlign=middle;whiteSpace=wrap;rounded=0;fontSize=10;movable=1;resizable=1;rotatable=1;deletable=1;editable=1;locked=0;connectable=1;" vertex="1" parent="1">
          <mxGeometry x="923" y="646" width="98" height="30" as="geometry" />
        </mxCell>
        <mxCell id="Jr9o1m4znOFmZxjSKrVi-47" value="&lt;font style=&quot;font-size: 10px;&quot;&gt;RITIRA&lt;/font&gt;" style="text;html=1;align=center;verticalAlign=middle;whiteSpace=wrap;rounded=0;fontSize=10;movable=1;resizable=1;rotatable=1;deletable=1;editable=1;locked=0;connectable=1;" vertex="1" parent="1">
          <mxGeometry x="1033" y="646" width="33" height="30" as="geometry" />
        </mxCell>
        <mxCell id="Jr9o1m4znOFmZxjSKrVi-48" value="" style="ellipse;whiteSpace=wrap;html=1;aspect=fixed;fillStyle=auto;fillColor=#000000;movable=1;resizable=1;rotatable=1;deletable=1;editable=1;locked=0;connectable=1;" vertex="1" parent="1">
          <mxGeometry x="883" y="669" width="4" height="4" as="geometry" />
        </mxCell>
        <mxCell id="Jr9o1m4znOFmZxjSKrVi-49" value="" style="ellipse;whiteSpace=wrap;html=1;aspect=fixed;fillStyle=auto;fillColor=#000000;movable=1;resizable=1;rotatable=1;deletable=1;editable=1;locked=0;connectable=1;" vertex="1" parent="1">
          <mxGeometry x="968" y="669" width="4" height="4" as="geometry" />
        </mxCell>
        <mxCell id="Jr9o1m4znOFmZxjSKrVi-50" value="" style="ellipse;whiteSpace=wrap;html=1;aspect=fixed;fillStyle=auto;fillColor=none;movable=1;resizable=1;rotatable=1;deletable=1;editable=1;locked=0;connectable=1;" vertex="1" parent="1">
          <mxGeometry x="1049" y="669" width="4" height="4" as="geometry" />
        </mxCell>
        <mxCell id="Jr9o1m4znOFmZxjSKrVi-51" value="" style="endArrow=none;html=1;rounded=0;movable=1;resizable=1;rotatable=1;deletable=1;editable=1;locked=0;connectable=1;" edge="1" parent="1">
          <mxGeometry width="50" height="50" relative="1" as="geometry">
            <mxPoint x="891" y="671" as="sourcePoint" />
            <mxPoint x="965" y="671" as="targetPoint" />
          </mxGeometry>
        </mxCell>
        <mxCell id="Jr9o1m4znOFmZxjSKrVi-52" value="" style="endArrow=none;dashed=1;html=1;rounded=0;movable=1;resizable=1;rotatable=1;deletable=1;editable=1;locked=0;connectable=1;" edge="1" parent="1">
          <mxGeometry width="50" height="50" relative="1" as="geometry">
            <mxPoint x="974" y="671" as="sourcePoint" />
            <mxPoint x="1047" y="671" as="targetPoint" />
          </mxGeometry>
        </mxCell>
        <mxCell id="Jr9o1m4znOFmZxjSKrVi-53" value="" style="endArrow=none;html=1;rounded=0;movable=1;resizable=1;rotatable=1;deletable=1;editable=1;locked=0;connectable=1;entryX=1.001;entryY=0.078;entryDx=0;entryDy=0;entryPerimeter=0;" edge="1" parent="1" target="Jr9o1m4znOFmZxjSKrVi-43">
          <mxGeometry width="50" height="50" relative="1" as="geometry">
            <mxPoint x="820" y="680" as="sourcePoint" />
            <mxPoint x="1100" y="681" as="targetPoint" />
          </mxGeometry>
        </mxCell>
        <mxCell id="Jr9o1m4znOFmZxjSKrVi-54" value="&lt;font style=&quot;font-size: 16px;&quot;&gt;CONFERMA E PAGA&lt;/font&gt;" style="text;html=1;align=center;verticalAlign=middle;whiteSpace=wrap;rounded=0;fontSize=16;movable=1;resizable=1;rotatable=1;deletable=1;editable=1;locked=0;connectable=1;" vertex="1" parent="1">
          <mxGeometry x="828" y="698" width="156" height="30" as="geometry" />
        </mxCell>
        <mxCell id="Jr9o1m4znOFmZxjSKrVi-55" value="&lt;div style=&quot;&quot;&gt;&lt;span style=&quot;background-color: initial;&quot;&gt;Ristorante&lt;/span&gt;&lt;/div&gt;&lt;div style=&quot;&quot;&gt;&lt;span style=&quot;font-size: 10px; background-color: initial;&quot;&gt;Via Mario Rossi 123, Bari&lt;/span&gt;&lt;/div&gt;" style="text;html=1;align=left;verticalAlign=middle;whiteSpace=wrap;rounded=0;movable=1;resizable=1;rotatable=1;deletable=1;editable=1;locked=0;connectable=1;" vertex="1" parent="1">
          <mxGeometry x="827" y="737" width="121" height="30" as="geometry" />
        </mxCell>
        <mxCell id="Jr9o1m4znOFmZxjSKrVi-56" value="&lt;u&gt;cambia&lt;/u&gt;" style="text;html=1;align=center;verticalAlign=middle;whiteSpace=wrap;rounded=0;movable=1;resizable=1;rotatable=1;deletable=1;editable=1;locked=0;connectable=1;" vertex="1" parent="1">
          <mxGeometry x="1040" y="738" width="60" height="30" as="geometry" />
        </mxCell>
        <mxCell id="Jr9o1m4znOFmZxjSKrVi-57" value="Modalità di ritiro&lt;div&gt;&lt;span style=&quot;font-size: 10px; background-color: initial;&quot;&gt;McDrive&lt;/span&gt;&lt;/div&gt;" style="text;html=1;align=left;verticalAlign=middle;whiteSpace=wrap;rounded=0;movable=1;resizable=1;rotatable=1;deletable=1;editable=1;locked=0;connectable=1;" vertex="1" parent="1">
          <mxGeometry x="827" y="789" width="107" height="30" as="geometry" />
        </mxCell>
        <mxCell id="Jr9o1m4znOFmZxjSKrVi-58" value="&lt;u&gt;cambia&lt;/u&gt;" style="text;html=1;align=center;verticalAlign=middle;whiteSpace=wrap;rounded=0;movable=1;resizable=1;rotatable=1;deletable=1;editable=1;locked=0;connectable=1;" vertex="1" parent="1">
          <mxGeometry x="1051" y="788" width="39" height="30" as="geometry" />
        </mxCell>
        <mxCell id="Jr9o1m4znOFmZxjSKrVi-59" value="Applica codice sconto&lt;div&gt;&lt;span style=&quot;font-size: 10px; background-color: initial;&quot;&gt;Codici disponibili nel profilo&lt;/span&gt;&lt;/div&gt;" style="text;html=1;align=left;verticalAlign=middle;whiteSpace=wrap;rounded=0;movable=1;resizable=1;rotatable=1;deletable=1;editable=1;locked=0;connectable=1;" vertex="1" parent="1">
          <mxGeometry x="828" y="840" width="181" height="30" as="geometry" />
        </mxCell>
        <mxCell id="Jr9o1m4znOFmZxjSKrVi-60" value="" style="ellipse;whiteSpace=wrap;html=1;aspect=fixed;movable=1;resizable=1;rotatable=1;deletable=1;editable=1;locked=0;connectable=1;" vertex="1" parent="1">
          <mxGeometry x="939" y="939" width="7" height="7" as="geometry" />
        </mxCell>
        <mxCell id="Jr9o1m4znOFmZxjSKrVi-61" value="" style="ellipse;whiteSpace=wrap;html=1;aspect=fixed;movable=1;resizable=1;rotatable=1;deletable=1;editable=1;locked=0;connectable=1;fillColor=#000000;" vertex="1" parent="1">
          <mxGeometry x="974" y="939" width="7" height="7" as="geometry" />
        </mxCell>
        <mxCell id="Jr9o1m4znOFmZxjSKrVi-62" value="" style="triangle;whiteSpace=wrap;html=1;movable=1;resizable=1;rotatable=1;deletable=1;editable=1;locked=0;connectable=1;" vertex="1" parent="1">
          <mxGeometry x="992" y="937" width="8" height="12" as="geometry" />
        </mxCell>
        <mxCell id="Jr9o1m4znOFmZxjSKrVi-63" value="" style="triangle;whiteSpace=wrap;html=1;direction=west;movable=1;resizable=1;rotatable=1;deletable=1;editable=1;locked=0;connectable=1;" vertex="1" parent="1">
          <mxGeometry x="920" y="937" width="8" height="12" as="geometry" />
        </mxCell>
        <mxCell id="Jr9o1m4znOFmZxjSKrVi-64" value="" style="endArrow=none;html=1;rounded=0;movable=1;resizable=1;rotatable=1;deletable=1;editable=1;locked=0;connectable=1;" edge="1" parent="1">
          <mxGeometry width="50" height="50" relative="1" as="geometry">
            <mxPoint x="830" y="958" as="sourcePoint" />
            <mxPoint x="1090" y="958" as="targetPoint" />
          </mxGeometry>
        </mxCell>
        <mxCell id="Jr9o1m4znOFmZxjSKrVi-65" value="&lt;font style=&quot;font-size: 14px;&quot;&gt;Totale senza sconto&lt;/font&gt;" style="text;html=1;align=left;verticalAlign=middle;whiteSpace=wrap;rounded=0;movable=1;resizable=1;rotatable=1;deletable=1;editable=1;locked=0;connectable=1;fontSize=14;" vertex="1" parent="1">
          <mxGeometry x="828" y="977" width="132" height="30" as="geometry" />
        </mxCell>
        <mxCell id="Jr9o1m4znOFmZxjSKrVi-66" value="&lt;font style=&quot;font-size: 14px;&quot;&gt;10,00 €&lt;/font&gt;" style="text;html=1;align=center;verticalAlign=middle;whiteSpace=wrap;rounded=0;movable=1;resizable=1;rotatable=1;deletable=1;editable=1;locked=0;connectable=1;fontSize=14;" vertex="1" parent="1">
          <mxGeometry x="1042" y="978" width="49" height="30" as="geometry" />
        </mxCell>
        <mxCell id="Jr9o1m4znOFmZxjSKrVi-67" value="CONFERMA ORDINE" style="rounded=1;whiteSpace=wrap;html=1;arcSize=12;movable=1;resizable=1;rotatable=1;deletable=1;editable=1;locked=0;connectable=1;" vertex="1" parent="1">
          <mxGeometry x="880" y="1062" width="160" height="38" as="geometry" />
        </mxCell>
        <mxCell id="Jr9o1m4znOFmZxjSKrVi-68" value="" style="ellipse;whiteSpace=wrap;html=1;aspect=fixed;movable=1;resizable=1;rotatable=1;deletable=1;editable=1;locked=0;connectable=1;" vertex="1" parent="1">
          <mxGeometry x="956.8" y="939" width="7" height="7" as="geometry" />
        </mxCell>
        <mxCell id="Jr9o1m4znOFmZxjSKrVi-69" value="" style="group" vertex="1" connectable="0" parent="1">
          <mxGeometry x="920.3" y="879" width="80" height="50" as="geometry" />
        </mxCell>
        <mxCell id="Jr9o1m4znOFmZxjSKrVi-70" value="" style="rounded=1;whiteSpace=wrap;html=1;movable=1;resizable=1;rotatable=1;deletable=1;editable=1;locked=0;connectable=1;" vertex="1" parent="Jr9o1m4znOFmZxjSKrVi-69">
          <mxGeometry width="80" height="50" as="geometry" />
        </mxCell>
        <mxCell id="Jr9o1m4znOFmZxjSKrVi-71" value="" style="whiteSpace=wrap;html=1;aspect=fixed;movable=1;resizable=1;rotatable=1;deletable=1;editable=1;locked=0;connectable=1;" vertex="1" parent="Jr9o1m4znOFmZxjSKrVi-69">
          <mxGeometry x="7.999999999999953" y="9.166666666666679" width="21.386562203228877" height="21.386562203228877" as="geometry" />
        </mxCell>
        <mxCell id="Jr9o1m4znOFmZxjSKrVi-72" value="-------" style="text;html=1;align=center;verticalAlign=middle;whiteSpace=wrap;rounded=0;movable=1;resizable=1;rotatable=1;deletable=1;editable=1;locked=0;connectable=1;" vertex="1" parent="Jr9o1m4znOFmZxjSKrVi-69">
          <mxGeometry x="34.66666666666662" y="3.333333333333322" width="40" height="25" as="geometry" />
        </mxCell>
        <mxCell id="Jr9o1m4znOFmZxjSKrVi-73" value="-------" style="text;html=1;align=center;verticalAlign=middle;whiteSpace=wrap;rounded=0;movable=1;resizable=1;rotatable=1;deletable=1;editable=1;locked=0;connectable=1;" vertex="1" parent="Jr9o1m4znOFmZxjSKrVi-69">
          <mxGeometry x="34.66666666666662" y="16.666666666666668" width="40" height="25" as="geometry" />
        </mxCell>
        <mxCell id="Jr9o1m4znOFmZxjSKrVi-74" value="" style="group;strokeWidth=3;rounded=1;strokeColor=default;" vertex="1" connectable="0" parent="1">
          <mxGeometry x="1010.3" y="879" width="80" height="50" as="geometry" />
        </mxCell>
        <mxCell id="Jr9o1m4znOFmZxjSKrVi-75" value="" style="rounded=1;whiteSpace=wrap;html=1;movable=1;resizable=1;rotatable=1;deletable=1;editable=1;locked=0;connectable=1;" vertex="1" parent="Jr9o1m4znOFmZxjSKrVi-74">
          <mxGeometry width="80" height="50" as="geometry" />
        </mxCell>
        <mxCell id="Jr9o1m4znOFmZxjSKrVi-76" value="" style="whiteSpace=wrap;html=1;aspect=fixed;movable=1;resizable=1;rotatable=1;deletable=1;editable=1;locked=0;connectable=1;" vertex="1" parent="Jr9o1m4znOFmZxjSKrVi-74">
          <mxGeometry x="7.999999999999953" y="9.166666666666679" width="21.386562203228877" height="21.386562203228877" as="geometry" />
        </mxCell>
        <mxCell id="Jr9o1m4znOFmZxjSKrVi-77" value="-------" style="text;html=1;align=center;verticalAlign=middle;whiteSpace=wrap;rounded=0;movable=1;resizable=1;rotatable=1;deletable=1;editable=1;locked=0;connectable=1;" vertex="1" parent="Jr9o1m4znOFmZxjSKrVi-74">
          <mxGeometry x="34.66666666666662" y="3.333333333333322" width="40" height="25" as="geometry" />
        </mxCell>
        <mxCell id="Jr9o1m4znOFmZxjSKrVi-78" value="-------" style="text;html=1;align=center;verticalAlign=middle;whiteSpace=wrap;rounded=0;movable=1;resizable=1;rotatable=1;deletable=1;editable=1;locked=0;connectable=1;" vertex="1" parent="Jr9o1m4znOFmZxjSKrVi-74">
          <mxGeometry x="34.66666666666662" y="16.666666666666668" width="40" height="25" as="geometry" />
        </mxCell>
        <mxCell id="Jr9o1m4znOFmZxjSKrVi-79" value="" style="group" vertex="1" connectable="0" parent="1">
          <mxGeometry x="830.3" y="879" width="80" height="50" as="geometry" />
        </mxCell>
        <mxCell id="Jr9o1m4znOFmZxjSKrVi-80" value="" style="rounded=1;whiteSpace=wrap;html=1;movable=1;resizable=1;rotatable=1;deletable=1;editable=1;locked=0;connectable=1;" vertex="1" parent="Jr9o1m4znOFmZxjSKrVi-79">
          <mxGeometry width="80" height="50" as="geometry" />
        </mxCell>
        <mxCell id="Jr9o1m4znOFmZxjSKrVi-81" value="" style="whiteSpace=wrap;html=1;aspect=fixed;movable=1;resizable=1;rotatable=1;deletable=1;editable=1;locked=0;connectable=1;" vertex="1" parent="Jr9o1m4znOFmZxjSKrVi-79">
          <mxGeometry x="7.999999999999953" y="9.166666666666679" width="21.386562203228877" height="21.386562203228877" as="geometry" />
        </mxCell>
        <mxCell id="Jr9o1m4znOFmZxjSKrVi-82" value="-------" style="text;html=1;align=center;verticalAlign=middle;whiteSpace=wrap;rounded=0;movable=1;resizable=1;rotatable=1;deletable=1;editable=1;locked=0;connectable=1;" vertex="1" parent="Jr9o1m4znOFmZxjSKrVi-79">
          <mxGeometry x="34.66666666666662" y="3.333333333333322" width="40" height="25" as="geometry" />
        </mxCell>
        <mxCell id="Jr9o1m4znOFmZxjSKrVi-83" value="-------" style="text;html=1;align=center;verticalAlign=middle;whiteSpace=wrap;rounded=0;movable=1;resizable=1;rotatable=1;deletable=1;editable=1;locked=0;connectable=1;" vertex="1" parent="Jr9o1m4znOFmZxjSKrVi-79">
          <mxGeometry x="34.66666666666662" y="16.666666666666668" width="40" height="25" as="geometry" />
        </mxCell>
        <mxCell id="Jr9o1m4znOFmZxjSKrVi-86" value="&lt;font style=&quot;font-size: 14px;&quot;&gt;Codice Ritiro McDrive&lt;/font&gt;" style="text;html=1;align=center;verticalAlign=middle;whiteSpace=wrap;rounded=0;" vertex="1" parent="1">
          <mxGeometry x="475" y="736" width="146" height="30" as="geometry" />
        </mxCell>
        <mxCell id="Jr9o1m4znOFmZxjSKrVi-87" value="&lt;font style=&quot;font-size: 45px;&quot;&gt;198&lt;/font&gt;" style="rounded=1;whiteSpace=wrap;html=1;" vertex="1" parent="1">
          <mxGeometry x="488" y="777" width="120" height="93" as="geometry" />
        </mxCell>
        <mxCell id="Jr9o1m4znOFmZxjSKrVi-88" value="Grazie per averci scelto!" style="text;html=1;align=center;verticalAlign=middle;whiteSpace=wrap;rounded=0;" vertex="1" parent="1">
          <mxGeometry x="482" y="891" width="133" height="30" as="geometry" />
        </mxCell>
        <mxCell id="Jr9o1m4znOFmZxjSKrVi-89" value="CONFERMA RITIRO" style="rounded=1;whiteSpace=wrap;html=1;arcSize=12;movable=1;resizable=1;rotatable=1;deletable=1;editable=1;locked=0;connectable=1;" vertex="1" parent="1">
          <mxGeometry x="464" y="1020" width="168" height="38" as="geometry" />
        </mxCell>
        <mxCell id="Jr9o1m4znOFmZxjSKrVi-90" value="" style="rounded=1;whiteSpace=wrap;html=1;arcSize=8;movable=1;resizable=1;rotatable=1;deletable=1;editable=1;locked=0;connectable=1;" vertex="1" parent="1">
          <mxGeometry x="420" y="644" width="279" height="456" as="geometry" />
        </mxCell>
        <mxCell id="Jr9o1m4znOFmZxjSKrVi-91" value="" style="endArrow=open;html=1;rounded=0;fontSize=12;startSize=8;endSize=8;curved=0;startArrow=none;startFill=0;entryX=0.448;entryY=0.496;entryDx=0;entryDy=0;entryPerimeter=0;endFill=0;movable=1;resizable=1;rotatable=1;deletable=1;editable=1;locked=0;connectable=1;" edge="1" parent="1">
          <mxGeometry width="50" height="50" relative="1" as="geometry">
            <mxPoint x="441" y="663" as="sourcePoint" />
            <mxPoint x="426.99799999999993" y="663.192" as="targetPoint" />
          </mxGeometry>
        </mxCell>
        <mxCell id="Jr9o1m4znOFmZxjSKrVi-92" value="&lt;font style=&quot;font-size: 10px;&quot;&gt;SELEZIONA&lt;/font&gt;" style="text;html=1;align=center;verticalAlign=middle;whiteSpace=wrap;rounded=0;fontSize=10;movable=1;resizable=1;rotatable=1;deletable=1;editable=1;locked=0;connectable=1;" vertex="1" parent="1">
          <mxGeometry x="455" y="646" width="58" height="30" as="geometry" />
        </mxCell>
        <mxCell id="Jr9o1m4znOFmZxjSKrVi-93" value="&lt;font style=&quot;font-size: 10px;&quot;&gt;CONFERMA E PAGA&lt;/font&gt;" style="text;html=1;align=center;verticalAlign=middle;whiteSpace=wrap;rounded=0;fontSize=10;movable=1;resizable=1;rotatable=1;deletable=1;editable=1;locked=0;connectable=1;" vertex="1" parent="1">
          <mxGeometry x="522" y="646" width="98" height="30" as="geometry" />
        </mxCell>
        <mxCell id="Jr9o1m4znOFmZxjSKrVi-94" value="&lt;font style=&quot;font-size: 10px;&quot;&gt;RITIRA&lt;/font&gt;" style="text;html=1;align=center;verticalAlign=middle;whiteSpace=wrap;rounded=0;fontSize=10;movable=1;resizable=1;rotatable=1;deletable=1;editable=1;locked=0;connectable=1;" vertex="1" parent="1">
          <mxGeometry x="632" y="646" width="33" height="30" as="geometry" />
        </mxCell>
        <mxCell id="Jr9o1m4znOFmZxjSKrVi-95" value="" style="ellipse;whiteSpace=wrap;html=1;aspect=fixed;fillStyle=auto;fillColor=#000000;movable=1;resizable=1;rotatable=1;deletable=1;editable=1;locked=0;connectable=1;" vertex="1" parent="1">
          <mxGeometry x="482" y="669" width="4" height="4" as="geometry" />
        </mxCell>
        <mxCell id="Jr9o1m4znOFmZxjSKrVi-96" value="" style="ellipse;whiteSpace=wrap;html=1;aspect=fixed;fillStyle=auto;fillColor=#000000;movable=1;resizable=1;rotatable=1;deletable=1;editable=1;locked=0;connectable=1;" vertex="1" parent="1">
          <mxGeometry x="567" y="669" width="4" height="4" as="geometry" />
        </mxCell>
        <mxCell id="Jr9o1m4znOFmZxjSKrVi-97" value="" style="ellipse;whiteSpace=wrap;html=1;aspect=fixed;fillStyle=auto;fillColor=#000000;movable=1;resizable=1;rotatable=1;deletable=1;editable=1;locked=0;connectable=1;" vertex="1" parent="1">
          <mxGeometry x="648" y="669" width="4" height="4" as="geometry" />
        </mxCell>
        <mxCell id="Jr9o1m4znOFmZxjSKrVi-98" value="" style="endArrow=none;html=1;rounded=0;movable=1;resizable=1;rotatable=1;deletable=1;editable=1;locked=0;connectable=1;" edge="1" parent="1">
          <mxGeometry width="50" height="50" relative="1" as="geometry">
            <mxPoint x="490" y="671" as="sourcePoint" />
            <mxPoint x="564" y="671" as="targetPoint" />
          </mxGeometry>
        </mxCell>
        <mxCell id="Jr9o1m4znOFmZxjSKrVi-99" value="" style="endArrow=none;html=1;rounded=0;movable=1;resizable=1;rotatable=1;deletable=1;editable=1;locked=0;connectable=1;" edge="1" parent="1">
          <mxGeometry width="50" height="50" relative="1" as="geometry">
            <mxPoint x="573" y="671" as="sourcePoint" />
            <mxPoint x="646" y="671" as="targetPoint" />
          </mxGeometry>
        </mxCell>
        <mxCell id="Jr9o1m4znOFmZxjSKrVi-100" value="" style="endArrow=none;html=1;rounded=0;movable=1;resizable=1;rotatable=1;deletable=1;editable=1;locked=0;connectable=1;" edge="1" parent="1">
          <mxGeometry width="50" height="50" relative="1" as="geometry">
            <mxPoint x="420" y="681" as="sourcePoint" />
            <mxPoint x="699" y="681" as="targetPoint" />
          </mxGeometry>
        </mxCell>
        <mxCell id="Jr9o1m4znOFmZxjSKrVi-101" value="&lt;font style=&quot;font-size: 14px;&quot;&gt;Codice Ritiro McDrive&lt;/font&gt;" style="text;html=1;align=center;verticalAlign=middle;whiteSpace=wrap;rounded=0;" vertex="1" parent="1">
          <mxGeometry x="486" y="774" width="146" height="30" as="geometry" />
        </mxCell>
        <mxCell id="Jr9o1m4znOFmZxjSKrVi-102" value="&lt;font style=&quot;font-size: 45px;&quot;&gt;198&lt;/font&gt;" style="rounded=1;whiteSpace=wrap;html=1;" vertex="1" parent="1">
          <mxGeometry x="498" y="815" width="120" height="93" as="geometry" />
        </mxCell>
        <mxCell id="Jr9o1m4znOFmZxjSKrVi-103" value="Grazie per averci scelto!" style="text;html=1;align=center;verticalAlign=middle;whiteSpace=wrap;rounded=0;" vertex="1" parent="1">
          <mxGeometry x="492" y="929" width="133" height="30" as="geometry" />
        </mxCell>
        <mxCell id="Jr9o1m4znOFmZxjSKrVi-104" value="CONFERMA RITIRO" style="rounded=1;whiteSpace=wrap;html=1;arcSize=12;movable=1;resizable=1;rotatable=1;deletable=1;editable=1;locked=0;connectable=1;" vertex="1" parent="1">
          <mxGeometry x="480" y="1062" width="160" height="38" as="geometry" />
        </mxCell>
        <mxCell id="Jr9o1m4znOFmZxjSKrVi-105" value="&lt;font style=&quot;font-size: 16px;&quot;&gt;RITIRA&lt;/font&gt;" style="text;html=1;align=left;verticalAlign=middle;whiteSpace=wrap;rounded=0;fontSize=16;movable=1;resizable=1;rotatable=1;deletable=1;editable=1;locked=0;connectable=1;" vertex="1" parent="1">
          <mxGeometry x="427" y="698" width="156" height="30" as="geometry" />
        </mxCell>
        <mxCell id="Jr9o1m4znOFmZxjSKrVi-108" value="&lt;font style=&quot;font-size: 14px;&quot;&gt;Sconto&lt;/font&gt;" style="text;html=1;align=left;verticalAlign=middle;whiteSpace=wrap;rounded=0;movable=1;resizable=1;rotatable=1;deletable=1;editable=1;locked=0;connectable=1;fontSize=14;" vertex="1" parent="1">
          <mxGeometry x="828" y="997" width="132" height="30" as="geometry" />
        </mxCell>
        <mxCell id="Jr9o1m4znOFmZxjSKrVi-109" value="&lt;font style=&quot;font-size: 14px;&quot;&gt;- 2,00 €&lt;/font&gt;" style="text;html=1;align=left;verticalAlign=middle;whiteSpace=wrap;rounded=0;movable=1;resizable=1;rotatable=1;deletable=1;editable=1;locked=0;connectable=1;fontSize=14;" vertex="1" parent="1">
          <mxGeometry x="1041" y="998" width="50" height="30" as="geometry" />
        </mxCell>
        <mxCell id="Jr9o1m4znOFmZxjSKrVi-110" value="&lt;font style=&quot;font-size: 14px;&quot;&gt;Totale&lt;/font&gt;" style="text;html=1;align=left;verticalAlign=middle;whiteSpace=wrap;rounded=0;movable=1;resizable=1;rotatable=1;deletable=1;editable=1;locked=0;connectable=1;fontSize=14;" vertex="1" parent="1">
          <mxGeometry x="828" y="1017" width="132" height="30" as="geometry" />
        </mxCell>
        <mxCell id="Jr9o1m4znOFmZxjSKrVi-111" value="&lt;font style=&quot;font-size: 14px;&quot;&gt;8,00 €&lt;/font&gt;" style="text;html=1;align=left;verticalAlign=middle;whiteSpace=wrap;rounded=0;movable=1;resizable=1;rotatable=1;deletable=1;editable=1;locked=0;connectable=1;fontSize=14;" vertex="1" parent="1">
          <mxGeometry x="1050" y="1018" width="50" height="30" as="geometry" />
        </mxCell>
        <mxCell id="Jr9o1m4znOFmZxjSKrVi-112" value="Conferma il ritiro solo dopo aver ricevuto l&#39;ordine" style="text;html=1;align=center;verticalAlign=middle;whiteSpace=wrap;rounded=0;" vertex="1" parent="1">
          <mxGeometry x="481" y="1019" width="158" height="30" as="geometry" />
        </mxCell>
        <mxCell id="Jr9o1m4znOFmZxjSKrVi-115" value="" style="endArrow=none;html=1;rounded=0;movable=1;resizable=1;rotatable=1;deletable=1;editable=1;locked=0;connectable=1;" edge="1" parent="1">
          <mxGeometry width="50" height="50" relative="1" as="geometry">
            <mxPoint x="30" y="958" as="sourcePoint" />
            <mxPoint x="290" y="958" as="targetPoint" />
          </mxGeometry>
        </mxCell>
      </root>
    </mxGraphModel>
  </diagram>
</mxfile>
